<mxfile host="app.diagrams.net" agent="Mozilla/5.0 (Windows NT 10.0; Win64; x64) AppleWebKit/537.36 (KHTML, like Gecko) Chrome/131.0.0.0 Safari/537.36" version="24.8.4">
  <diagram id="YfR7EV01C2XkB26kusGe" name="PÃ¡gina-1">
    <mxGraphModel dx="2567" dy="1653" grid="1" gridSize="10" guides="1" tooltips="1" connect="1" arrows="1" fold="1" page="1" pageScale="1" pageWidth="827" pageHeight="1169" math="0" shadow="0">
      <root>
        <mxCell id="0" />
        <mxCell id="1" parent="0" />
        <mxCell id="prAd8TzG0-nLueriuJuA-1" value="Genero" style="rounded=0;whiteSpace=wrap;html=1;fillColor=#f8cecc;strokeColor=#b85450;" parent="1" vertex="1">
          <mxGeometry x="-865" y="-245" width="120" height="60" as="geometry" />
        </mxCell>
        <mxCell id="prAd8TzG0-nLueriuJuA-2" value="Cliente" style="rounded=0;whiteSpace=wrap;html=1;fillColor=#f8cecc;strokeColor=#b85450;" parent="1" vertex="1">
          <mxGeometry x="-500" y="-575" width="120" height="60" as="geometry" />
        </mxCell>
        <mxCell id="prAd8TzG0-nLueriuJuA-3" value="Empleado" style="rounded=0;whiteSpace=wrap;html=1;fillColor=#f8cecc;strokeColor=#b85450;" parent="1" vertex="1">
          <mxGeometry x="-480" y="-245" width="120" height="60" as="geometry" />
        </mxCell>
        <mxCell id="prAd8TzG0-nLueriuJuA-4" value="Ciudad" style="rounded=0;whiteSpace=wrap;html=1;fillColor=#f8cecc;strokeColor=#b85450;" parent="1" vertex="1">
          <mxGeometry x="-10.000000000000014" y="-575" width="120" height="60" as="geometry" />
        </mxCell>
        <mxCell id="prAd8TzG0-nLueriuJuA-5" value="Tiene" style="rhombus;whiteSpace=wrap;html=1;fillColor=#dae8fc;strokeColor=#6c8ebf;" parent="1" vertex="1">
          <mxGeometry x="-827" y="-490" width="50" height="50" as="geometry" />
        </mxCell>
        <mxCell id="prAd8TzG0-nLueriuJuA-6" value="Tiene" style="rhombus;whiteSpace=wrap;html=1;fillColor=#dae8fc;strokeColor=#6c8ebf;" parent="1" vertex="1">
          <mxGeometry x="-640" y="-240" width="50" height="50" as="geometry" />
        </mxCell>
        <mxCell id="prAd8TzG0-nLueriuJuA-7" value="" style="endArrow=none;html=1;rounded=0;" parent="1" source="prAd8TzG0-nLueriuJuA-1" target="prAd8TzG0-nLueriuJuA-6" edge="1">
          <mxGeometry width="50" height="50" relative="1" as="geometry">
            <mxPoint x="-650" y="-130" as="sourcePoint" />
            <mxPoint x="-600" y="-180" as="targetPoint" />
          </mxGeometry>
        </mxCell>
        <mxCell id="prAd8TzG0-nLueriuJuA-8" value="" style="endArrow=none;html=1;rounded=0;" parent="1" source="prAd8TzG0-nLueriuJuA-1" target="prAd8TzG0-nLueriuJuA-5" edge="1">
          <mxGeometry width="50" height="50" relative="1" as="geometry">
            <mxPoint x="-670" y="-250" as="sourcePoint" />
            <mxPoint x="-620" y="-300" as="targetPoint" />
          </mxGeometry>
        </mxCell>
        <mxCell id="prAd8TzG0-nLueriuJuA-10" value="" style="endArrow=none;html=1;rounded=0;" parent="1" source="prAd8TzG0-nLueriuJuA-5" target="prAd8TzG0-nLueriuJuA-2" edge="1">
          <mxGeometry width="50" height="50" relative="1" as="geometry">
            <mxPoint x="-540" y="-297.22" as="sourcePoint" />
            <mxPoint x="-440" y="-465" as="targetPoint" />
            <Array as="points">
              <mxPoint x="-440" y="-470" />
            </Array>
          </mxGeometry>
        </mxCell>
        <mxCell id="prAd8TzG0-nLueriuJuA-11" value="" style="endArrow=none;html=1;rounded=0;" parent="1" source="prAd8TzG0-nLueriuJuA-6" target="prAd8TzG0-nLueriuJuA-3" edge="1">
          <mxGeometry width="50" height="50" relative="1" as="geometry">
            <mxPoint x="-560" y="-120" as="sourcePoint" />
            <mxPoint x="-510" y="-170" as="targetPoint" />
          </mxGeometry>
        </mxCell>
        <mxCell id="prAd8TzG0-nLueriuJuA-12" value="&lt;u&gt;id&lt;/u&gt;" style="ellipse;whiteSpace=wrap;html=1;fillColor=#fff2cc;strokeColor=#d6b656;" parent="1" vertex="1">
          <mxGeometry x="-1000" y="-270" width="80" height="40" as="geometry" />
        </mxCell>
        <mxCell id="prAd8TzG0-nLueriuJuA-13" value="&lt;u&gt;id&lt;/u&gt;" style="ellipse;whiteSpace=wrap;html=1;fillColor=#fff2cc;strokeColor=#d6b656;" parent="1" vertex="1">
          <mxGeometry x="-745" y="-595" width="80" height="40" as="geometry" />
        </mxCell>
        <mxCell id="prAd8TzG0-nLueriuJuA-15" value="tipo" style="ellipse;whiteSpace=wrap;html=1;fillColor=#fff2cc;strokeColor=#d6b656;" parent="1" vertex="1">
          <mxGeometry x="-1000" y="-185" width="80" height="30" as="geometry" />
        </mxCell>
        <mxCell id="prAd8TzG0-nLueriuJuA-17" value="" style="endArrow=none;html=1;rounded=0;" parent="1" source="prAd8TzG0-nLueriuJuA-12" target="prAd8TzG0-nLueriuJuA-1" edge="1">
          <mxGeometry width="50" height="50" relative="1" as="geometry">
            <mxPoint x="-760" y="-200" as="sourcePoint" />
            <mxPoint x="-710" y="-250" as="targetPoint" />
          </mxGeometry>
        </mxCell>
        <mxCell id="prAd8TzG0-nLueriuJuA-18" value="" style="endArrow=none;html=1;rounded=0;" parent="1" source="prAd8TzG0-nLueriuJuA-15" target="prAd8TzG0-nLueriuJuA-1" edge="1">
          <mxGeometry width="50" height="50" relative="1" as="geometry">
            <mxPoint x="-770" y="-130" as="sourcePoint" />
            <mxPoint x="-720" y="-180" as="targetPoint" />
          </mxGeometry>
        </mxCell>
        <mxCell id="prAd8TzG0-nLueriuJuA-19" value="" style="endArrow=none;html=1;rounded=0;" parent="1" source="prAd8TzG0-nLueriuJuA-2" target="prAd8TzG0-nLueriuJuA-13" edge="1">
          <mxGeometry width="50" height="50" relative="1" as="geometry">
            <mxPoint x="-530" y="-357.22" as="sourcePoint" />
            <mxPoint x="-480" y="-407.22" as="targetPoint" />
          </mxGeometry>
        </mxCell>
        <mxCell id="prAd8TzG0-nLueriuJuA-21" value="Sucursal" style="rounded=0;whiteSpace=wrap;html=1;fillColor=#f8cecc;strokeColor=#b85450;" parent="1" vertex="1">
          <mxGeometry x="10" y="-247" width="120" height="60" as="geometry" />
        </mxCell>
        <mxCell id="prAd8TzG0-nLueriuJuA-22" value="trabaja en" style="rhombus;whiteSpace=wrap;html=1;fillColor=#dae8fc;strokeColor=#6c8ebf;" parent="1" vertex="1">
          <mxGeometry x="-224.14" y="-246" width="85" height="62" as="geometry" />
        </mxCell>
        <mxCell id="prAd8TzG0-nLueriuJuA-23" value="" style="endArrow=none;html=1;rounded=0;entryX=0;entryY=0.5;entryDx=0;entryDy=0;" parent="1" source="prAd8TzG0-nLueriuJuA-3" target="prAd8TzG0-nLueriuJuA-22" edge="1">
          <mxGeometry width="50" height="50" relative="1" as="geometry">
            <mxPoint x="-410" y="-100" as="sourcePoint" />
            <mxPoint x="-360" y="-150" as="targetPoint" />
          </mxGeometry>
        </mxCell>
        <mxCell id="prAd8TzG0-nLueriuJuA-24" value="" style="endArrow=none;html=1;rounded=0;" parent="1" source="prAd8TzG0-nLueriuJuA-22" target="prAd8TzG0-nLueriuJuA-21" edge="1">
          <mxGeometry width="50" height="50" relative="1" as="geometry">
            <mxPoint x="-300" y="-120" as="sourcePoint" />
            <mxPoint x="-250" y="-170" as="targetPoint" />
          </mxGeometry>
        </mxCell>
        <mxCell id="prAd8TzG0-nLueriuJuA-25" value="Producto" style="rounded=0;whiteSpace=wrap;html=1;fillColor=#f8cecc;strokeColor=#b85450;" parent="1" vertex="1">
          <mxGeometry x="390" y="-247" width="120" height="60" as="geometry" />
        </mxCell>
        <mxCell id="prAd8TzG0-nLueriuJuA-26" value="vende" style="rhombus;whiteSpace=wrap;html=1;fillColor=#dae8fc;strokeColor=#6c8ebf;" parent="1" vertex="1">
          <mxGeometry x="230" y="-242" width="60" height="50" as="geometry" />
        </mxCell>
        <mxCell id="prAd8TzG0-nLueriuJuA-27" value="" style="endArrow=none;html=1;rounded=0;" parent="1" source="prAd8TzG0-nLueriuJuA-21" target="prAd8TzG0-nLueriuJuA-26" edge="1">
          <mxGeometry width="50" height="50" relative="1" as="geometry">
            <mxPoint x="-120" y="-120" as="sourcePoint" />
            <mxPoint x="-70" y="-170" as="targetPoint" />
          </mxGeometry>
        </mxCell>
        <mxCell id="prAd8TzG0-nLueriuJuA-29" value="" style="endArrow=none;html=1;rounded=0;exitX=1;exitY=0.5;exitDx=0;exitDy=0;" parent="1" source="prAd8TzG0-nLueriuJuA-26" target="prAd8TzG0-nLueriuJuA-25" edge="1">
          <mxGeometry width="50" height="50" relative="1" as="geometry">
            <mxPoint x="-10" y="-110" as="sourcePoint" />
            <mxPoint x="40" y="-160" as="targetPoint" />
          </mxGeometry>
        </mxCell>
        <mxCell id="prAd8TzG0-nLueriuJuA-30" value="LineaDeProducto" style="rounded=0;whiteSpace=wrap;html=1;fillColor=#f8cecc;strokeColor=#b85450;" parent="1" vertex="1">
          <mxGeometry x="390" y="22.5" width="120" height="60" as="geometry" />
        </mxCell>
        <mxCell id="prAd8TzG0-nLueriuJuA-31" value="es de tipo&amp;nbsp;" style="rhombus;whiteSpace=wrap;html=1;fillColor=#dae8fc;strokeColor=#6c8ebf;" parent="1" vertex="1">
          <mxGeometry x="405" y="-110" width="90" height="72.5" as="geometry" />
        </mxCell>
        <mxCell id="prAd8TzG0-nLueriuJuA-32" value="" style="endArrow=none;html=1;rounded=0;" parent="1" source="prAd8TzG0-nLueriuJuA-31" target="prAd8TzG0-nLueriuJuA-25" edge="1">
          <mxGeometry width="50" height="50" relative="1" as="geometry">
            <mxPoint x="-30" y="-60" as="sourcePoint" />
            <mxPoint x="20" y="-110" as="targetPoint" />
          </mxGeometry>
        </mxCell>
        <mxCell id="prAd8TzG0-nLueriuJuA-33" value="" style="endArrow=none;html=1;rounded=0;" parent="1" source="prAd8TzG0-nLueriuJuA-30" target="prAd8TzG0-nLueriuJuA-31" edge="1">
          <mxGeometry width="50" height="50" relative="1" as="geometry">
            <mxPoint x="390" y="27.5" as="sourcePoint" />
            <mxPoint x="440" y="-22.5" as="targetPoint" />
          </mxGeometry>
        </mxCell>
        <mxCell id="prAd8TzG0-nLueriuJuA-34" value="precio" style="ellipse;whiteSpace=wrap;html=1;fillColor=#fff2cc;strokeColor=#d6b656;" parent="1" vertex="1">
          <mxGeometry x="570" y="-130" width="70" height="40" as="geometry" />
        </mxCell>
        <mxCell id="prAd8TzG0-nLueriuJuA-35" value="" style="endArrow=none;html=1;rounded=0;" parent="1" source="prAd8TzG0-nLueriuJuA-25" target="prAd8TzG0-nLueriuJuA-34" edge="1">
          <mxGeometry width="50" height="50" relative="1" as="geometry">
            <mxPoint x="90" y="-30" as="sourcePoint" />
            <mxPoint x="140" y="-80" as="targetPoint" />
          </mxGeometry>
        </mxCell>
        <mxCell id="prAd8TzG0-nLueriuJuA-36" value="&lt;font style=&quot;font-size: 12px;&quot;&gt;Venta&lt;/font&gt;" style="rounded=0;whiteSpace=wrap;html=1;fillColor=#f8cecc;strokeColor=#b85450;" parent="1" vertex="1">
          <mxGeometry x="-482.42" width="130" height="60" as="geometry" />
        </mxCell>
        <mxCell id="prAd8TzG0-nLueriuJuA-37" value="nombre" style="ellipse;whiteSpace=wrap;html=1;fillColor=#fff2cc;strokeColor=#d6b656;" parent="1" vertex="1">
          <mxGeometry x="-745" y="-660" width="80" height="40" as="geometry" />
        </mxCell>
        <mxCell id="prAd8TzG0-nLueriuJuA-38" value="nombre" style="ellipse;whiteSpace=wrap;html=1;fillColor=#fff2cc;strokeColor=#d6b656;" parent="1" vertex="1">
          <mxGeometry x="-640" y="-310" width="80" height="40" as="geometry" />
        </mxCell>
        <mxCell id="prAd8TzG0-nLueriuJuA-39" value="" style="endArrow=none;html=1;rounded=0;" parent="1" source="prAd8TzG0-nLueriuJuA-38" target="prAd8TzG0-nLueriuJuA-3" edge="1">
          <mxGeometry width="50" height="50" relative="1" as="geometry">
            <mxPoint x="-480" y="-70" as="sourcePoint" />
            <mxPoint x="-430" y="-120" as="targetPoint" />
          </mxGeometry>
        </mxCell>
        <mxCell id="prAd8TzG0-nLueriuJuA-40" value="" style="endArrow=none;html=1;rounded=0;entryX=0.5;entryY=1;entryDx=0;entryDy=0;" parent="1" source="prAd8TzG0-nLueriuJuA-2" target="prAd8TzG0-nLueriuJuA-37" edge="1">
          <mxGeometry width="50" height="50" relative="1" as="geometry">
            <mxPoint x="-430" y="-327.22" as="sourcePoint" />
            <mxPoint x="-471" y="-468" as="targetPoint" />
          </mxGeometry>
        </mxCell>
        <mxCell id="prAd8TzG0-nLueriuJuA-41" value="&lt;u&gt;id&lt;/u&gt;" style="ellipse;whiteSpace=wrap;html=1;fillColor=#fff2cc;strokeColor=#d6b656;" parent="1" vertex="1">
          <mxGeometry x="-140" y="-257" width="80" height="40" as="geometry" />
        </mxCell>
        <mxCell id="prAd8TzG0-nLueriuJuA-42" value="ciudad" style="ellipse;whiteSpace=wrap;html=1;fillColor=#fff2cc;strokeColor=#d6b656;" parent="1" vertex="1">
          <mxGeometry x="-135" y="-307.5" width="80" height="40" as="geometry" />
        </mxCell>
        <mxCell id="prAd8TzG0-nLueriuJuA-43" value="&lt;u&gt;id&lt;/u&gt;" style="ellipse;whiteSpace=wrap;html=1;fillColor=#fff2cc;strokeColor=#d6b656;" parent="1" vertex="1">
          <mxGeometry x="610" y="-212" width="90" height="40" as="geometry" />
        </mxCell>
        <mxCell id="prAd8TzG0-nLueriuJuA-45" value="nombre_producto" style="ellipse;whiteSpace=wrap;html=1;fillColor=#fff2cc;strokeColor=#d6b656;" parent="1" vertex="1">
          <mxGeometry x="566" y="-305" width="124" height="60" as="geometry" />
        </mxCell>
        <mxCell id="prAd8TzG0-nLueriuJuA-46" value="&lt;u&gt;id&lt;/u&gt;" style="ellipse;whiteSpace=wrap;html=1;fillColor=#fff2cc;strokeColor=#d6b656;" parent="1" vertex="1">
          <mxGeometry x="590" y="82.5" width="100" height="40" as="geometry" />
        </mxCell>
        <mxCell id="prAd8TzG0-nLueriuJuA-47" value="nombre" style="ellipse;whiteSpace=wrap;html=1;fillColor=#fff2cc;strokeColor=#d6b656;" parent="1" vertex="1">
          <mxGeometry x="360" y="140" width="120" height="40" as="geometry" />
        </mxCell>
        <mxCell id="prAd8TzG0-nLueriuJuA-48" value="" style="endArrow=none;html=1;rounded=0;" parent="1" source="prAd8TzG0-nLueriuJuA-21" target="prAd8TzG0-nLueriuJuA-41" edge="1">
          <mxGeometry width="50" height="50" relative="1" as="geometry">
            <mxPoint x="-290" y="-160" as="sourcePoint" />
            <mxPoint x="-240" y="-210" as="targetPoint" />
          </mxGeometry>
        </mxCell>
        <mxCell id="prAd8TzG0-nLueriuJuA-49" value="" style="endArrow=none;html=1;rounded=0;" parent="1" source="prAd8TzG0-nLueriuJuA-21" target="prAd8TzG0-nLueriuJuA-42" edge="1">
          <mxGeometry width="50" height="50" relative="1" as="geometry">
            <mxPoint x="-160" y="-150" as="sourcePoint" />
            <mxPoint x="-110" y="-200" as="targetPoint" />
          </mxGeometry>
        </mxCell>
        <mxCell id="prAd8TzG0-nLueriuJuA-50" value="" style="endArrow=none;html=1;rounded=0;" parent="1" source="prAd8TzG0-nLueriuJuA-25" target="prAd8TzG0-nLueriuJuA-45" edge="1">
          <mxGeometry width="50" height="50" relative="1" as="geometry">
            <mxPoint x="-10" y="-160" as="sourcePoint" />
            <mxPoint x="40" y="-210" as="targetPoint" />
          </mxGeometry>
        </mxCell>
        <mxCell id="prAd8TzG0-nLueriuJuA-51" value="" style="endArrow=none;html=1;rounded=0;" parent="1" source="prAd8TzG0-nLueriuJuA-25" target="prAd8TzG0-nLueriuJuA-43" edge="1">
          <mxGeometry width="50" height="50" relative="1" as="geometry">
            <mxPoint x="140" y="-190" as="sourcePoint" />
            <mxPoint x="170" y="-210" as="targetPoint" />
          </mxGeometry>
        </mxCell>
        <mxCell id="prAd8TzG0-nLueriuJuA-52" value="" style="endArrow=none;html=1;rounded=0;exitX=0.5;exitY=0;exitDx=0;exitDy=0;" parent="1" source="prAd8TzG0-nLueriuJuA-47" target="prAd8TzG0-nLueriuJuA-30" edge="1">
          <mxGeometry width="50" height="50" relative="1" as="geometry">
            <mxPoint x="410" y="147.5" as="sourcePoint" />
            <mxPoint x="460" y="97.5" as="targetPoint" />
          </mxGeometry>
        </mxCell>
        <mxCell id="prAd8TzG0-nLueriuJuA-53" value="" style="endArrow=none;html=1;rounded=0;exitX=1;exitY=0.5;exitDx=0;exitDy=0;entryX=0;entryY=0.5;entryDx=0;entryDy=0;" parent="1" source="prAd8TzG0-nLueriuJuA-30" target="prAd8TzG0-nLueriuJuA-46" edge="1">
          <mxGeometry width="50" height="50" relative="1" as="geometry">
            <mxPoint x="480" y="137.5" as="sourcePoint" />
            <mxPoint x="530" y="87.5" as="targetPoint" />
          </mxGeometry>
        </mxCell>
        <mxCell id="prAd8TzG0-nLueriuJuA-54" value="MedioDePago" style="rounded=0;whiteSpace=wrap;html=1;fillColor=#f8cecc;strokeColor=#b85450;" parent="1" vertex="1">
          <mxGeometry x="-880" y="300" width="120" height="60" as="geometry" />
        </mxCell>
        <mxCell id="prAd8TzG0-nLueriuJuA-55" value="Factura" style="rounded=0;whiteSpace=wrap;html=1;fillColor=#f8cecc;strokeColor=#b85450;" parent="1" vertex="1">
          <mxGeometry x="-476" y="255" width="120" height="60" as="geometry" />
        </mxCell>
        <mxCell id="prAd8TzG0-nLueriuJuA-56" value="&lt;u&gt;id&lt;/u&gt;" style="ellipse;whiteSpace=wrap;html=1;fillColor=#fff2cc;strokeColor=#d6b656;" parent="1" vertex="1">
          <mxGeometry x="-800" y="395" width="150" height="75" as="geometry" />
        </mxCell>
        <mxCell id="prAd8TzG0-nLueriuJuA-57" value="&lt;u&gt;id&lt;/u&gt;" style="ellipse;whiteSpace=wrap;html=1;fillColor=#fff2cc;strokeColor=#d6b656;" parent="1" vertex="1">
          <mxGeometry x="-600" y="310" width="105" height="40" as="geometry" />
        </mxCell>
        <mxCell id="prAd8TzG0-nLueriuJuA-59" value="nombre" style="ellipse;whiteSpace=wrap;html=1;fillColor=#fff2cc;strokeColor=#d6b656;" parent="1" vertex="1">
          <mxGeometry x="30" y="-705" width="80" height="30" as="geometry" />
        </mxCell>
        <mxCell id="prAd8TzG0-nLueriuJuA-60" value="&lt;u&gt;id&lt;/u&gt;" style="ellipse;whiteSpace=wrap;html=1;fillColor=#fff2cc;strokeColor=#d6b656;" parent="1" vertex="1">
          <mxGeometry x="-120.00000000000001" y="-710" width="80" height="40" as="geometry" />
        </mxCell>
        <mxCell id="prAd8TzG0-nLueriuJuA-61" value="tipo" style="ellipse;whiteSpace=wrap;html=1;fillColor=#fff2cc;strokeColor=#d6b656;" parent="1" vertex="1">
          <mxGeometry x="-950" y="430" width="80" height="30" as="geometry" />
        </mxCell>
        <mxCell id="prAd8TzG0-nLueriuJuA-63" value="" style="endArrow=none;html=1;rounded=0;exitX=0.5;exitY=0;exitDx=0;exitDy=0;" parent="1" source="prAd8TzG0-nLueriuJuA-61" target="prAd8TzG0-nLueriuJuA-54" edge="1">
          <mxGeometry width="50" height="50" relative="1" as="geometry">
            <mxPoint x="-790" y="387.5" as="sourcePoint" />
            <mxPoint x="-740" y="337.5" as="targetPoint" />
          </mxGeometry>
        </mxCell>
        <mxCell id="prAd8TzG0-nLueriuJuA-64" value="" style="endArrow=none;html=1;rounded=0;" parent="1" source="prAd8TzG0-nLueriuJuA-56" target="prAd8TzG0-nLueriuJuA-54" edge="1">
          <mxGeometry width="50" height="50" relative="1" as="geometry">
            <mxPoint x="-730" y="367.5" as="sourcePoint" />
            <mxPoint x="-680" y="317.5" as="targetPoint" />
          </mxGeometry>
        </mxCell>
        <mxCell id="prAd8TzG0-nLueriuJuA-65" value="" style="endArrow=none;html=1;rounded=0;" parent="1" source="prAd8TzG0-nLueriuJuA-57" target="prAd8TzG0-nLueriuJuA-55" edge="1">
          <mxGeometry width="50" height="50" relative="1" as="geometry">
            <mxPoint x="-290.78" y="345" as="sourcePoint" />
            <mxPoint x="-278.28" y="315" as="targetPoint" />
          </mxGeometry>
        </mxCell>
        <mxCell id="prAd8TzG0-nLueriuJuA-66" value="" style="endArrow=none;html=1;rounded=0;" parent="1" source="Er9YEC_tbkNxV13FakHl-113" target="prAd8TzG0-nLueriuJuA-55" edge="1">
          <mxGeometry width="50" height="50" relative="1" as="geometry">
            <mxPoint x="-416" y="390" as="sourcePoint" />
            <mxPoint x="-408.28" y="265" as="targetPoint" />
          </mxGeometry>
        </mxCell>
        <mxCell id="prAd8TzG0-nLueriuJuA-67" value="tiene&amp;nbsp;&lt;div&gt;un tipo de&amp;nbsp;&lt;/div&gt;" style="rhombus;whiteSpace=wrap;html=1;fillColor=#dae8fc;strokeColor=#6c8ebf;" parent="1" vertex="1">
          <mxGeometry x="-468.42" y="125" width="102" height="65" as="geometry" />
        </mxCell>
        <mxCell id="prAd8TzG0-nLueriuJuA-68" value="" style="endArrow=none;html=1;rounded=0;" parent="1" source="prAd8TzG0-nLueriuJuA-67" target="prAd8TzG0-nLueriuJuA-36" edge="1">
          <mxGeometry width="50" height="50" relative="1" as="geometry">
            <mxPoint x="-350" y="115" as="sourcePoint" />
            <mxPoint x="-300" y="65" as="targetPoint" />
          </mxGeometry>
        </mxCell>
        <mxCell id="prAd8TzG0-nLueriuJuA-69" value="" style="endArrow=none;html=1;rounded=0;" parent="1" source="prAd8TzG0-nLueriuJuA-55" target="prAd8TzG0-nLueriuJuA-67" edge="1">
          <mxGeometry width="50" height="50" relative="1" as="geometry">
            <mxPoint x="-328.28" y="235" as="sourcePoint" />
            <mxPoint x="-278.28" y="185" as="targetPoint" />
          </mxGeometry>
        </mxCell>
        <mxCell id="prAd8TzG0-nLueriuJuA-70" value="se realiza mediante" style="rhombus;whiteSpace=wrap;html=1;fillColor=#dae8fc;strokeColor=#6c8ebf;" parent="1" vertex="1">
          <mxGeometry x="-700" y="150" width="130" height="80" as="geometry" />
        </mxCell>
        <mxCell id="prAd8TzG0-nLueriuJuA-71" value="" style="endArrow=none;html=1;rounded=0;" parent="1" source="prAd8TzG0-nLueriuJuA-70" target="prAd8TzG0-nLueriuJuA-36" edge="1">
          <mxGeometry width="50" height="50" relative="1" as="geometry">
            <mxPoint x="-240" y="100" as="sourcePoint" />
            <mxPoint x="-190" y="50" as="targetPoint" />
          </mxGeometry>
        </mxCell>
        <mxCell id="prAd8TzG0-nLueriuJuA-72" value="" style="endArrow=none;html=1;rounded=0;" parent="1" source="prAd8TzG0-nLueriuJuA-70" target="prAd8TzG0-nLueriuJuA-54" edge="1">
          <mxGeometry width="50" height="50" relative="1" as="geometry">
            <mxPoint x="-850" y="357.5" as="sourcePoint" />
            <mxPoint x="-800" y="307.5" as="targetPoint" />
          </mxGeometry>
        </mxCell>
        <mxCell id="prAd8TzG0-nLueriuJuA-73" value="&lt;div&gt;realiza&lt;/div&gt;" style="rhombus;whiteSpace=wrap;html=1;fillColor=#dae8fc;strokeColor=#6c8ebf;" parent="1" vertex="1">
          <mxGeometry x="20" y="-7.5" width="100" height="75" as="geometry" />
        </mxCell>
        <mxCell id="prAd8TzG0-nLueriuJuA-76" value="la realiza un" style="rhombus;whiteSpace=wrap;html=1;fillColor=#dae8fc;strokeColor=#6c8ebf;" parent="1" vertex="1">
          <mxGeometry x="-450" y="-110" width="60" height="50" as="geometry" />
        </mxCell>
        <mxCell id="prAd8TzG0-nLueriuJuA-77" value="solicita" style="rhombus;whiteSpace=wrap;html=1;fillColor=#dae8fc;strokeColor=#6c8ebf;" parent="1" vertex="1">
          <mxGeometry x="-890" y="12.5" width="60" height="40" as="geometry" />
        </mxCell>
        <mxCell id="prAd8TzG0-nLueriuJuA-78" value="" style="endArrow=none;html=1;rounded=0;" parent="1" source="prAd8TzG0-nLueriuJuA-36" target="prAd8TzG0-nLueriuJuA-76" edge="1">
          <mxGeometry width="50" height="50" relative="1" as="geometry">
            <mxPoint x="-420" y="20" as="sourcePoint" />
            <mxPoint x="-370" y="-30" as="targetPoint" />
          </mxGeometry>
        </mxCell>
        <mxCell id="prAd8TzG0-nLueriuJuA-79" value="" style="endArrow=none;html=1;rounded=0;" parent="1" source="prAd8TzG0-nLueriuJuA-76" target="prAd8TzG0-nLueriuJuA-3" edge="1">
          <mxGeometry width="50" height="50" relative="1" as="geometry">
            <mxPoint x="-430" y="-70" as="sourcePoint" />
            <mxPoint x="-380" y="-120" as="targetPoint" />
          </mxGeometry>
        </mxCell>
        <mxCell id="prAd8TzG0-nLueriuJuA-80" value="" style="endArrow=none;html=1;rounded=0;" parent="1" source="prAd8TzG0-nLueriuJuA-36" target="prAd8TzG0-nLueriuJuA-77" edge="1">
          <mxGeometry width="50" height="50" relative="1" as="geometry">
            <mxPoint x="-310" y="10" as="sourcePoint" />
            <mxPoint x="-260" y="-40" as="targetPoint" />
          </mxGeometry>
        </mxCell>
        <mxCell id="prAd8TzG0-nLueriuJuA-84" value="fecha" style="ellipse;whiteSpace=wrap;html=1;fillColor=#fff2cc;strokeColor=#d6b656;" parent="1" vertex="1">
          <mxGeometry x="-259.99999999999994" y="-60" width="80" height="45" as="geometry" />
        </mxCell>
        <mxCell id="prAd8TzG0-nLueriuJuA-88" value="" style="endArrow=none;html=1;rounded=0;" parent="1" source="prAd8TzG0-nLueriuJuA-84" target="prAd8TzG0-nLueriuJuA-36" edge="1">
          <mxGeometry width="50" height="50" relative="1" as="geometry">
            <mxPoint x="-430" y="120" as="sourcePoint" />
            <mxPoint x="-380" y="70" as="targetPoint" />
          </mxGeometry>
        </mxCell>
        <mxCell id="prAd8TzG0-nLueriuJuA-90" value="N" style="text;html=1;align=center;verticalAlign=middle;whiteSpace=wrap;rounded=0;" parent="1" vertex="1">
          <mxGeometry x="-530" y="60" width="60" height="30" as="geometry" />
        </mxCell>
        <mxCell id="prAd8TzG0-nLueriuJuA-92" value="1" style="text;html=1;align=center;verticalAlign=middle;whiteSpace=wrap;rounded=0;" parent="1" vertex="1">
          <mxGeometry x="-820" y="270" width="60" height="30" as="geometry" />
        </mxCell>
        <mxCell id="prAd8TzG0-nLueriuJuA-93" value="1" style="text;html=1;align=center;verticalAlign=middle;whiteSpace=wrap;rounded=0;" parent="1" vertex="1">
          <mxGeometry x="-430" y="60" width="60" height="30" as="geometry" />
        </mxCell>
        <mxCell id="prAd8TzG0-nLueriuJuA-94" value="1" style="text;html=1;align=center;verticalAlign=middle;whiteSpace=wrap;rounded=0;" parent="1" vertex="1">
          <mxGeometry x="-435" y="225" width="60" height="30" as="geometry" />
        </mxCell>
        <mxCell id="prAd8TzG0-nLueriuJuA-95" value="1" style="text;html=1;align=center;verticalAlign=middle;whiteSpace=wrap;rounded=0;" parent="1" vertex="1">
          <mxGeometry x="-440" y="-185" width="60" height="30" as="geometry" />
        </mxCell>
        <mxCell id="prAd8TzG0-nLueriuJuA-96" value="N" style="text;html=1;align=center;verticalAlign=middle;whiteSpace=wrap;rounded=0;" parent="1" vertex="1">
          <mxGeometry x="-435" y="-30" width="60" height="30" as="geometry" />
        </mxCell>
        <mxCell id="prAd8TzG0-nLueriuJuA-97" value="N" style="text;html=1;align=center;verticalAlign=middle;whiteSpace=wrap;rounded=0;" parent="1" vertex="1">
          <mxGeometry x="-365" width="60" height="30" as="geometry" />
        </mxCell>
        <mxCell id="prAd8TzG0-nLueriuJuA-100" value="1" style="text;html=1;align=center;verticalAlign=middle;whiteSpace=wrap;rounded=0;" parent="1" vertex="1">
          <mxGeometry x="-820" y="-275" width="60" height="30" as="geometry" />
        </mxCell>
        <mxCell id="prAd8TzG0-nLueriuJuA-101" value="1" style="text;html=1;align=center;verticalAlign=middle;whiteSpace=wrap;rounded=0;" parent="1" vertex="1">
          <mxGeometry x="-760" y="-245" width="60" height="30" as="geometry" />
        </mxCell>
        <mxCell id="prAd8TzG0-nLueriuJuA-102" value="N" style="text;html=1;align=center;verticalAlign=middle;whiteSpace=wrap;rounded=0;" parent="1" vertex="1">
          <mxGeometry x="-520" y="-245" width="60" height="30" as="geometry" />
        </mxCell>
        <mxCell id="prAd8TzG0-nLueriuJuA-103" value="" style="endArrow=none;html=1;rounded=0;exitX=0.5;exitY=1;exitDx=0;exitDy=0;entryX=0.5;entryY=0;entryDx=0;entryDy=0;" parent="1" source="prAd8TzG0-nLueriuJuA-60" target="prAd8TzG0-nLueriuJuA-4" edge="1">
          <mxGeometry width="50" height="50" relative="1" as="geometry">
            <mxPoint x="-70.85999999997999" y="-443.9999999999866" as="sourcePoint" />
            <mxPoint x="-604.86" y="60" as="targetPoint" />
          </mxGeometry>
        </mxCell>
        <mxCell id="prAd8TzG0-nLueriuJuA-104" value="" style="endArrow=none;html=1;rounded=0;entryX=0.5;entryY=0;entryDx=0;entryDy=0;" parent="1" source="prAd8TzG0-nLueriuJuA-59" target="prAd8TzG0-nLueriuJuA-4" edge="1">
          <mxGeometry width="50" height="50" relative="1" as="geometry">
            <mxPoint x="-644.86" y="-40" as="sourcePoint" />
            <mxPoint x="-594.86" y="-90" as="targetPoint" />
          </mxGeometry>
        </mxCell>
        <mxCell id="prAd8TzG0-nLueriuJuA-105" value="N" style="text;html=1;align=center;verticalAlign=middle;whiteSpace=wrap;rounded=0;" parent="1" vertex="1">
          <mxGeometry x="-375" y="-212" width="60" height="30" as="geometry" />
        </mxCell>
        <mxCell id="prAd8TzG0-nLueriuJuA-108" value="N" style="text;html=1;align=center;verticalAlign=middle;whiteSpace=wrap;rounded=0;" parent="1" vertex="1">
          <mxGeometry x="350" y="-217" width="60" height="30" as="geometry" />
        </mxCell>
        <mxCell id="prAd8TzG0-nLueriuJuA-109" value="N" style="text;html=1;align=center;verticalAlign=middle;whiteSpace=wrap;rounded=0;" parent="1" vertex="1">
          <mxGeometry x="434" y="-182" width="60" height="30" as="geometry" />
        </mxCell>
        <mxCell id="prAd8TzG0-nLueriuJuA-110" value="1" style="text;html=1;align=center;verticalAlign=middle;whiteSpace=wrap;rounded=0;" parent="1" vertex="1">
          <mxGeometry x="410" y="-7.5" width="60" height="30" as="geometry" />
        </mxCell>
        <mxCell id="VZDlQIuLwOVZOqWRu0Yf-3" value="" style="endArrow=none;html=1;rounded=0;exitX=1;exitY=0.5;exitDx=0;exitDy=0;" parent="1" source="VZDlQIuLwOVZOqWRu0Yf-6" target="prAd8TzG0-nLueriuJuA-4" edge="1">
          <mxGeometry width="50" height="50" relative="1" as="geometry">
            <mxPoint x="-160.86" y="-400" as="sourcePoint" />
            <mxPoint x="-265.86" y="-294" as="targetPoint" />
          </mxGeometry>
        </mxCell>
        <mxCell id="VZDlQIuLwOVZOqWRu0Yf-5" value="" style="endArrow=none;html=1;rounded=0;entryX=0;entryY=0.5;entryDx=0;entryDy=0;" parent="1" source="prAd8TzG0-nLueriuJuA-2" target="VZDlQIuLwOVZOqWRu0Yf-6" edge="1">
          <mxGeometry width="50" height="50" relative="1" as="geometry">
            <mxPoint x="-190" y="-390" as="sourcePoint" />
            <mxPoint x="-265" y="-380" as="targetPoint" />
          </mxGeometry>
        </mxCell>
        <mxCell id="VZDlQIuLwOVZOqWRu0Yf-6" value="es de" style="rhombus;whiteSpace=wrap;html=1;fillColor=#dae8fc;strokeColor=#6c8ebf;" parent="1" vertex="1">
          <mxGeometry x="-205" y="-570" width="60" height="50" as="geometry" />
        </mxCell>
        <mxCell id="VZDlQIuLwOVZOqWRu0Yf-14" value="cantidad_de_productos" style="ellipse;whiteSpace=wrap;html=1;fillColor=#fff2cc;strokeColor=#d6b656;" parent="1" vertex="1">
          <mxGeometry x="-365" y="-105" width="150" height="45" as="geometry" />
        </mxCell>
        <mxCell id="Qt0WcPcXsxcyW3VepFiE-1" value="N" style="text;html=1;align=center;verticalAlign=middle;whiteSpace=wrap;rounded=0;" parent="1" vertex="1">
          <mxGeometry x="-383" y="-545" width="60" height="30" as="geometry" />
        </mxCell>
        <mxCell id="Qt0WcPcXsxcyW3VepFiE-2" value="1" style="text;html=1;align=center;verticalAlign=middle;whiteSpace=wrap;rounded=0;" parent="1" vertex="1">
          <mxGeometry x="-60.000000000000014" y="-545" width="60" height="30" as="geometry" />
        </mxCell>
        <mxCell id="Er9YEC_tbkNxV13FakHl-1" value="1" style="text;html=1;align=center;verticalAlign=middle;resizable=0;points=[];autosize=1;strokeColor=none;fillColor=none;" parent="1" vertex="1">
          <mxGeometry x="-20" y="-220" width="30" height="30" as="geometry" />
        </mxCell>
        <mxCell id="Er9YEC_tbkNxV13FakHl-3" value="N" style="text;html=1;align=center;verticalAlign=middle;resizable=0;points=[];autosize=1;strokeColor=none;fillColor=none;" parent="1" vertex="1">
          <mxGeometry x="35" y="-184" width="30" height="30" as="geometry" />
        </mxCell>
        <mxCell id="Er9YEC_tbkNxV13FakHl-4" value="" style="endArrow=none;html=1;rounded=0;" parent="1" source="VZDlQIuLwOVZOqWRu0Yf-14" target="prAd8TzG0-nLueriuJuA-36" edge="1">
          <mxGeometry width="50" height="50" relative="1" as="geometry">
            <mxPoint x="-540" y="105" as="sourcePoint" />
            <mxPoint x="-443" y="18" as="targetPoint" />
          </mxGeometry>
        </mxCell>
        <mxCell id="Er9YEC_tbkNxV13FakHl-5" value="&lt;u&gt;id&lt;/u&gt;" style="ellipse;whiteSpace=wrap;html=1;fillColor=#fff2cc;strokeColor=#d6b656;" parent="1" vertex="1">
          <mxGeometry x="-630" y="-60" width="60" height="30" as="geometry" />
        </mxCell>
        <mxCell id="Er9YEC_tbkNxV13FakHl-6" value="" style="endArrow=none;html=1;rounded=0;" parent="1" source="Er9YEC_tbkNxV13FakHl-5" target="prAd8TzG0-nLueriuJuA-36" edge="1">
          <mxGeometry width="50" height="50" relative="1" as="geometry">
            <mxPoint x="-535" y="85.5" as="sourcePoint" />
            <mxPoint x="-393" y="24.5" as="targetPoint" />
          </mxGeometry>
        </mxCell>
        <mxCell id="Er9YEC_tbkNxV13FakHl-7" value="DNI" style="ellipse;whiteSpace=wrap;html=1;fillColor=#fff2cc;strokeColor=#d6b656;" parent="1" vertex="1">
          <mxGeometry x="-305" y="-766.5" width="80" height="40" as="geometry" />
        </mxCell>
        <mxCell id="Er9YEC_tbkNxV13FakHl-8" value="" style="endArrow=none;html=1;rounded=0;" parent="1" source="prAd8TzG0-nLueriuJuA-2" target="Er9YEC_tbkNxV13FakHl-7" edge="1">
          <mxGeometry width="50" height="50" relative="1" as="geometry">
            <mxPoint x="-383" y="-390" as="sourcePoint" />
            <mxPoint x="-418" y="-460" as="targetPoint" />
          </mxGeometry>
        </mxCell>
        <mxCell id="Er9YEC_tbkNxV13FakHl-9" value="apellido" style="ellipse;whiteSpace=wrap;html=1;fillColor=#fff2cc;strokeColor=#d6b656;" parent="1" vertex="1">
          <mxGeometry x="-690" y="-705" width="80" height="40" as="geometry" />
        </mxCell>
        <mxCell id="Er9YEC_tbkNxV13FakHl-11" value="apellido" style="ellipse;whiteSpace=wrap;html=1;fillColor=#fff2cc;strokeColor=#d6b656;" parent="1" vertex="1">
          <mxGeometry x="-655" y="-362" width="80" height="40" as="geometry" />
        </mxCell>
        <mxCell id="Er9YEC_tbkNxV13FakHl-12" value="" style="endArrow=none;html=1;rounded=0;" parent="1" source="prAd8TzG0-nLueriuJuA-2" target="Er9YEC_tbkNxV13FakHl-9" edge="1">
          <mxGeometry width="50" height="50" relative="1" as="geometry">
            <mxPoint x="-400" y="-580" as="sourcePoint" />
            <mxPoint x="-460" y="-670" as="targetPoint" />
          </mxGeometry>
        </mxCell>
        <mxCell id="Er9YEC_tbkNxV13FakHl-13" value="fecha_nacimiento" style="ellipse;whiteSpace=wrap;html=1;fillColor=#fff2cc;strokeColor=#d6b656;" parent="1" vertex="1">
          <mxGeometry x="-304.99999999999994" y="-705" width="128.28" height="74" as="geometry" />
        </mxCell>
        <mxCell id="Er9YEC_tbkNxV13FakHl-14" value="" style="endArrow=none;html=1;rounded=0;" parent="1" source="prAd8TzG0-nLueriuJuA-2" target="Er9YEC_tbkNxV13FakHl-13" edge="1">
          <mxGeometry width="50" height="50" relative="1" as="geometry">
            <mxPoint x="-380" y="-543" as="sourcePoint" />
            <mxPoint x="-298" y="-625" as="targetPoint" />
          </mxGeometry>
        </mxCell>
        <mxCell id="Er9YEC_tbkNxV13FakHl-15" value="direccion" style="ellipse;whiteSpace=wrap;html=1;fillColor=#fff2cc;strokeColor=#d6b656;" parent="1" vertex="1">
          <mxGeometry x="-305" y="-620" width="98.28" height="60" as="geometry" />
        </mxCell>
        <mxCell id="Er9YEC_tbkNxV13FakHl-16" value="" style="endArrow=none;html=1;rounded=0;" parent="1" source="prAd8TzG0-nLueriuJuA-2" target="Er9YEC_tbkNxV13FakHl-15" edge="1">
          <mxGeometry width="50" height="50" relative="1" as="geometry">
            <mxPoint x="-370" y="-562" as="sourcePoint" />
            <mxPoint x="-258" y="-603" as="targetPoint" />
          </mxGeometry>
        </mxCell>
        <mxCell id="Er9YEC_tbkNxV13FakHl-17" value="1" style="text;html=1;align=center;verticalAlign=middle;resizable=0;points=[];autosize=1;strokeColor=none;fillColor=none;" parent="1" vertex="1">
          <mxGeometry x="-530" y="-545" width="30" height="30" as="geometry" />
        </mxCell>
        <mxCell id="Er9YEC_tbkNxV13FakHl-18" value="" style="endArrow=none;html=1;rounded=0;" parent="1" source="Er9YEC_tbkNxV13FakHl-11" target="prAd8TzG0-nLueriuJuA-3" edge="1">
          <mxGeometry width="50" height="50" relative="1" as="geometry">
            <mxPoint x="-477" y="-260" as="sourcePoint" />
            <mxPoint x="-440" y="-316" as="targetPoint" />
          </mxGeometry>
        </mxCell>
        <mxCell id="Er9YEC_tbkNxV13FakHl-21" value="CUIL" style="ellipse;whiteSpace=wrap;html=1;fillColor=#fff2cc;strokeColor=#d6b656;" parent="1" vertex="1">
          <mxGeometry x="-630" y="-410" width="80" height="40" as="geometry" />
        </mxCell>
        <mxCell id="Er9YEC_tbkNxV13FakHl-22" value="" style="endArrow=none;html=1;rounded=0;" parent="1" source="prAd8TzG0-nLueriuJuA-3" target="Er9YEC_tbkNxV13FakHl-21" edge="1">
          <mxGeometry width="50" height="50" relative="1" as="geometry">
            <mxPoint x="-495" y="-170" as="sourcePoint" />
            <mxPoint x="-465" y="-95" as="targetPoint" />
          </mxGeometry>
        </mxCell>
        <mxCell id="Er9YEC_tbkNxV13FakHl-30" value="activo" style="ellipse;whiteSpace=wrap;html=1;fillColor=#fff2cc;strokeColor=#d6b656;" parent="1" vertex="1">
          <mxGeometry x="-256.72" y="-385" width="80" height="40" as="geometry" />
        </mxCell>
        <mxCell id="Er9YEC_tbkNxV13FakHl-31" value="" style="endArrow=none;html=1;rounded=0;" parent="1" source="Er9YEC_tbkNxV13FakHl-30" target="prAd8TzG0-nLueriuJuA-3" edge="1">
          <mxGeometry width="50" height="50" relative="1" as="geometry">
            <mxPoint x="-349.42" y="-300" as="sourcePoint" />
            <mxPoint x="-352.42" y="-235" as="targetPoint" />
          </mxGeometry>
        </mxCell>
        <mxCell id="Er9YEC_tbkNxV13FakHl-32" value="direccion" style="ellipse;whiteSpace=wrap;html=1;fillColor=#fff2cc;strokeColor=#d6b656;" parent="1" vertex="1">
          <mxGeometry x="-286.72" y="-270" width="80" height="40" as="geometry" />
        </mxCell>
        <mxCell id="Er9YEC_tbkNxV13FakHl-33" value="" style="endArrow=none;html=1;rounded=0;" parent="1" source="Er9YEC_tbkNxV13FakHl-32" target="prAd8TzG0-nLueriuJuA-3" edge="1">
          <mxGeometry width="50" height="50" relative="1" as="geometry">
            <mxPoint x="-294" y="-313" as="sourcePoint" />
            <mxPoint x="-380" y="-187" as="targetPoint" />
          </mxGeometry>
        </mxCell>
        <mxCell id="Er9YEC_tbkNxV13FakHl-36" value="localidad" style="ellipse;whiteSpace=wrap;html=1;fillColor=#fff2cc;strokeColor=#d6b656;" parent="1" vertex="1">
          <mxGeometry x="-120" y="-351.25" width="80" height="40" as="geometry" />
        </mxCell>
        <mxCell id="Er9YEC_tbkNxV13FakHl-37" value="" style="endArrow=none;html=1;rounded=0;" parent="1" source="prAd8TzG0-nLueriuJuA-21" target="Er9YEC_tbkNxV13FakHl-36" edge="1">
          <mxGeometry width="50" height="50" relative="1" as="geometry">
            <mxPoint x="132" y="-230" as="sourcePoint" />
            <mxPoint x="90" y="-343" as="targetPoint" />
          </mxGeometry>
        </mxCell>
        <mxCell id="Er9YEC_tbkNxV13FakHl-39" value="N" style="text;html=1;align=center;verticalAlign=middle;resizable=0;points=[];autosize=1;strokeColor=none;fillColor=none;" parent="1" vertex="1">
          <mxGeometry x="130" y="-220" width="30" height="30" as="geometry" />
        </mxCell>
        <mxCell id="Er9YEC_tbkNxV13FakHl-76" value="total" style="ellipse;whiteSpace=wrap;html=1;fillColor=#fff2cc;strokeColor=#d6b656;" parent="1" vertex="1">
          <mxGeometry x="-558.42" y="-100" width="90" height="40" as="geometry" />
        </mxCell>
        <mxCell id="Er9YEC_tbkNxV13FakHl-77" value="" style="endArrow=none;html=1;rounded=0;" parent="1" source="Er9YEC_tbkNxV13FakHl-76" target="prAd8TzG0-nLueriuJuA-36" edge="1">
          <mxGeometry width="50" height="50" relative="1" as="geometry">
            <mxPoint x="-625.5" y="50" as="sourcePoint" />
            <mxPoint x="-494.5" y="18" as="targetPoint" />
          </mxGeometry>
        </mxCell>
        <mxCell id="Er9YEC_tbkNxV13FakHl-79" value="" style="endArrow=none;html=1;rounded=0;" parent="1" source="prAd8TzG0-nLueriuJuA-36" target="prAd8TzG0-nLueriuJuA-73" edge="1">
          <mxGeometry width="50" height="50" relative="1" as="geometry">
            <mxPoint x="-333" y="50" as="sourcePoint" />
            <mxPoint x="-234" y="-20" as="targetPoint" />
          </mxGeometry>
        </mxCell>
        <mxCell id="Er9YEC_tbkNxV13FakHl-80" value="" style="endArrow=none;html=1;rounded=0;" parent="1" source="prAd8TzG0-nLueriuJuA-73" target="prAd8TzG0-nLueriuJuA-21" edge="1">
          <mxGeometry width="50" height="50" relative="1" as="geometry">
            <mxPoint x="-290" y="-52" as="sourcePoint" />
            <mxPoint x="102" y="-50" as="targetPoint" />
          </mxGeometry>
        </mxCell>
        <mxCell id="Er9YEC_tbkNxV13FakHl-82" value="" style="endArrow=none;html=1;rounded=0;" parent="1" source="prAd8TzG0-nLueriuJuA-77" target="prAd8TzG0-nLueriuJuA-2" edge="1">
          <mxGeometry width="50" height="50" relative="1" as="geometry">
            <mxPoint x="-1002" y="31.5" as="sourcePoint" />
            <mxPoint x="-1350" y="33.5" as="targetPoint" />
            <Array as="points">
              <mxPoint x="-1190" y="33" />
              <mxPoint x="-1190" y="-260" />
              <mxPoint x="-1190" y="-550" />
              <mxPoint x="-840" y="-550" />
            </Array>
          </mxGeometry>
        </mxCell>
        <mxCell id="Er9YEC_tbkNxV13FakHl-84" value="N" style="text;html=1;align=center;verticalAlign=middle;resizable=0;points=[];autosize=1;strokeColor=none;fillColor=none;" parent="1" vertex="1">
          <mxGeometry x="-520" width="30" height="30" as="geometry" />
        </mxCell>
        <mxCell id="Er9YEC_tbkNxV13FakHl-86" value="LineaDeVenta" style="rounded=0;whiteSpace=wrap;html=1;fillColor=#f8cecc;strokeColor=#b85450;" parent="1" vertex="1">
          <mxGeometry x="-145" y="230" width="120" height="60" as="geometry" />
        </mxCell>
        <mxCell id="Er9YEC_tbkNxV13FakHl-88" value="tiene" style="rhombus;whiteSpace=wrap;html=1;fillColor=#dae8fc;strokeColor=#6c8ebf;" parent="1" vertex="1">
          <mxGeometry x="-305" y="110" width="60" height="40" as="geometry" />
        </mxCell>
        <mxCell id="Er9YEC_tbkNxV13FakHl-89" value="" style="endArrow=none;html=1;rounded=0;" parent="1" source="prAd8TzG0-nLueriuJuA-36" target="Er9YEC_tbkNxV13FakHl-88" edge="1">
          <mxGeometry width="50" height="50" relative="1" as="geometry">
            <mxPoint x="-479" y="80.5" as="sourcePoint" />
            <mxPoint x="-827" y="82.5" as="targetPoint" />
          </mxGeometry>
        </mxCell>
        <mxCell id="Er9YEC_tbkNxV13FakHl-90" value="" style="endArrow=none;html=1;rounded=0;" parent="1" source="Er9YEC_tbkNxV13FakHl-88" target="Er9YEC_tbkNxV13FakHl-86" edge="1">
          <mxGeometry width="50" height="50" relative="1" as="geometry">
            <mxPoint x="-462" y="50" as="sourcePoint" />
            <mxPoint x="-810" y="52" as="targetPoint" />
          </mxGeometry>
        </mxCell>
        <mxCell id="Er9YEC_tbkNxV13FakHl-91" value="subtotal" style="ellipse;whiteSpace=wrap;html=1;fillColor=#fff2cc;strokeColor=#d6b656;" parent="1" vertex="1">
          <mxGeometry x="-296.72" y="290" width="90" height="40" as="geometry" />
        </mxCell>
        <mxCell id="Er9YEC_tbkNxV13FakHl-93" value="&lt;u&gt;id&lt;/u&gt;" style="ellipse;whiteSpace=wrap;html=1;fillColor=#fff2cc;strokeColor=#d6b656;" parent="1" vertex="1">
          <mxGeometry x="-245" y="348" width="90" height="40" as="geometry" />
        </mxCell>
        <mxCell id="Er9YEC_tbkNxV13FakHl-94" value="" style="endArrow=none;html=1;rounded=0;" parent="1" source="Er9YEC_tbkNxV13FakHl-86" target="Er9YEC_tbkNxV13FakHl-91" edge="1">
          <mxGeometry width="50" height="50" relative="1" as="geometry">
            <mxPoint x="-777" y="270" as="sourcePoint" />
            <mxPoint x="-920" y="290" as="targetPoint" />
          </mxGeometry>
        </mxCell>
        <mxCell id="Er9YEC_tbkNxV13FakHl-95" value="" style="endArrow=none;html=1;rounded=0;" parent="1" source="Er9YEC_tbkNxV13FakHl-86" target="Er9YEC_tbkNxV13FakHl-93" edge="1">
          <mxGeometry width="50" height="50" relative="1" as="geometry">
            <mxPoint x="-744" y="304" as="sourcePoint" />
            <mxPoint x="-860" y="365" as="targetPoint" />
          </mxGeometry>
        </mxCell>
        <mxCell id="Er9YEC_tbkNxV13FakHl-99" value="1" style="text;html=1;align=center;verticalAlign=middle;whiteSpace=wrap;rounded=0;" parent="1" vertex="1">
          <mxGeometry x="-360" y="52.5" width="60" height="30" as="geometry" />
        </mxCell>
        <mxCell id="Er9YEC_tbkNxV13FakHl-100" value="N" style="text;html=1;align=center;verticalAlign=middle;resizable=0;points=[];autosize=1;strokeColor=none;fillColor=none;" parent="1" vertex="1">
          <mxGeometry x="-135" y="198" width="30" height="30" as="geometry" />
        </mxCell>
        <mxCell id="Er9YEC_tbkNxV13FakHl-101" value="" style="endArrow=none;html=1;rounded=0;" parent="1" source="Er9YEC_tbkNxV13FakHl-86" target="Er9YEC_tbkNxV13FakHl-102" edge="1">
          <mxGeometry width="50" height="50" relative="1" as="geometry">
            <mxPoint x="58" y="225" as="sourcePoint" />
            <mxPoint x="170" y="110" as="targetPoint" />
          </mxGeometry>
        </mxCell>
        <mxCell id="Er9YEC_tbkNxV13FakHl-102" value="&lt;div&gt;tiene&lt;/div&gt;" style="rhombus;whiteSpace=wrap;html=1;fillColor=#dae8fc;strokeColor=#6c8ebf;" parent="1" vertex="1">
          <mxGeometry x="160" y="7.5" width="100" height="75" as="geometry" />
        </mxCell>
        <mxCell id="Er9YEC_tbkNxV13FakHl-104" value="" style="endArrow=none;html=1;rounded=0;" parent="1" source="prAd8TzG0-nLueriuJuA-25" target="Er9YEC_tbkNxV13FakHl-102" edge="1">
          <mxGeometry width="50" height="50" relative="1" as="geometry">
            <mxPoint x="10" y="287" as="sourcePoint" />
            <mxPoint x="239" y="120" as="targetPoint" />
          </mxGeometry>
        </mxCell>
        <mxCell id="Er9YEC_tbkNxV13FakHl-105" value="1" style="text;html=1;align=center;verticalAlign=middle;resizable=0;points=[];autosize=1;strokeColor=none;fillColor=none;" parent="1" vertex="1">
          <mxGeometry x="-55" y="190" width="30" height="30" as="geometry" />
        </mxCell>
        <mxCell id="Er9YEC_tbkNxV13FakHl-106" value="N" style="text;html=1;align=center;verticalAlign=middle;resizable=0;points=[];autosize=1;strokeColor=none;fillColor=none;" parent="1" vertex="1">
          <mxGeometry x="380" y="-182" width="30" height="30" as="geometry" />
        </mxCell>
        <mxCell id="Er9YEC_tbkNxV13FakHl-107" value="cantidad" style="ellipse;whiteSpace=wrap;html=1;fillColor=#fff2cc;strokeColor=#d6b656;" parent="1" vertex="1">
          <mxGeometry x="-291.72" y="220" width="90" height="40" as="geometry" />
        </mxCell>
        <mxCell id="Er9YEC_tbkNxV13FakHl-108" value="" style="endArrow=none;html=1;rounded=0;" parent="1" source="Er9YEC_tbkNxV13FakHl-86" target="Er9YEC_tbkNxV13FakHl-107" edge="1">
          <mxGeometry width="50" height="50" relative="1" as="geometry">
            <mxPoint x="-76" y="300" as="sourcePoint" />
            <mxPoint x="-150" y="350" as="targetPoint" />
          </mxGeometry>
        </mxCell>
        <mxCell id="Er9YEC_tbkNxV13FakHl-112" value="TipoFactura" style="rounded=0;whiteSpace=wrap;html=1;fillColor=#f8cecc;strokeColor=#b85450;" parent="1" vertex="1">
          <mxGeometry x="-473" y="570" width="120" height="60" as="geometry" />
        </mxCell>
        <mxCell id="Er9YEC_tbkNxV13FakHl-113" value="tiene" style="rhombus;whiteSpace=wrap;html=1;fillColor=#dae8fc;strokeColor=#6c8ebf;" parent="1" vertex="1">
          <mxGeometry x="-467" y="405" width="102" height="65" as="geometry" />
        </mxCell>
        <mxCell id="Er9YEC_tbkNxV13FakHl-114" value="" style="endArrow=none;html=1;rounded=0;" parent="1" source="Er9YEC_tbkNxV13FakHl-112" target="Er9YEC_tbkNxV13FakHl-113" edge="1">
          <mxGeometry width="50" height="50" relative="1" as="geometry">
            <mxPoint x="-400.62" y="610" as="sourcePoint" />
            <mxPoint x="-400.62" y="520" as="targetPoint" />
          </mxGeometry>
        </mxCell>
        <mxCell id="Er9YEC_tbkNxV13FakHl-115" value="N" style="text;html=1;align=center;verticalAlign=middle;resizable=0;points=[];autosize=1;strokeColor=none;fillColor=none;" parent="1" vertex="1">
          <mxGeometry x="-415" y="318" width="30" height="30" as="geometry" />
        </mxCell>
        <mxCell id="Er9YEC_tbkNxV13FakHl-116" value="1" style="text;html=1;align=center;verticalAlign=middle;resizable=0;points=[];autosize=1;strokeColor=none;fillColor=none;" parent="1" vertex="1">
          <mxGeometry x="-415" y="528" width="30" height="30" as="geometry" />
        </mxCell>
        <mxCell id="Er9YEC_tbkNxV13FakHl-117" value="&lt;u&gt;id&lt;/u&gt;" style="ellipse;whiteSpace=wrap;html=1;fillColor=#fff2cc;strokeColor=#d6b656;" parent="1" vertex="1">
          <mxGeometry x="-545" y="670" width="105" height="40" as="geometry" />
        </mxCell>
        <mxCell id="Er9YEC_tbkNxV13FakHl-119" value="" style="endArrow=none;html=1;rounded=0;" parent="1" source="Er9YEC_tbkNxV13FakHl-117" target="Er9YEC_tbkNxV13FakHl-112" edge="1">
          <mxGeometry width="50" height="50" relative="1" as="geometry">
            <mxPoint x="-580" y="640" as="sourcePoint" />
            <mxPoint x="-580" y="550" as="targetPoint" />
          </mxGeometry>
        </mxCell>
        <mxCell id="Er9YEC_tbkNxV13FakHl-120" value="tipo" style="ellipse;whiteSpace=wrap;html=1;fillColor=#fff2cc;strokeColor=#d6b656;" parent="1" vertex="1">
          <mxGeometry x="-345.5" y="660" width="105" height="40" as="geometry" />
        </mxCell>
        <mxCell id="Er9YEC_tbkNxV13FakHl-121" value="" style="endArrow=none;html=1;rounded=0;" parent="1" source="Er9YEC_tbkNxV13FakHl-120" target="Er9YEC_tbkNxV13FakHl-112" edge="1">
          <mxGeometry width="50" height="50" relative="1" as="geometry">
            <mxPoint x="-530" y="713" as="sourcePoint" />
            <mxPoint x="-436" y="660" as="targetPoint" />
          </mxGeometry>
        </mxCell>
        <mxCell id="Er9YEC_tbkNxV13FakHl-122" value="TipoCliente" style="rounded=0;whiteSpace=wrap;html=1;fillColor=#f8cecc;strokeColor=#b85450;" parent="1" vertex="1">
          <mxGeometry x="-500" y="-910" width="120" height="60" as="geometry" />
        </mxCell>
        <mxCell id="Er9YEC_tbkNxV13FakHl-123" value="tiene" style="rhombus;whiteSpace=wrap;html=1;fillColor=#dae8fc;strokeColor=#6c8ebf;" parent="1" vertex="1">
          <mxGeometry x="-470" y="-728" width="60" height="50" as="geometry" />
        </mxCell>
        <mxCell id="Er9YEC_tbkNxV13FakHl-124" value="" style="endArrow=none;html=1;rounded=0;" parent="1" source="prAd8TzG0-nLueriuJuA-2" target="Er9YEC_tbkNxV13FakHl-123" edge="1">
          <mxGeometry width="50" height="50" relative="1" as="geometry">
            <mxPoint x="-404" y="-565" as="sourcePoint" />
            <mxPoint x="-271" y="-718" as="targetPoint" />
          </mxGeometry>
        </mxCell>
        <mxCell id="Er9YEC_tbkNxV13FakHl-125" value="" style="endArrow=none;html=1;rounded=0;" parent="1" source="Er9YEC_tbkNxV13FakHl-123" target="Er9YEC_tbkNxV13FakHl-122" edge="1">
          <mxGeometry width="50" height="50" relative="1" as="geometry">
            <mxPoint x="-394" y="-555" as="sourcePoint" />
            <mxPoint x="-261" y="-708" as="targetPoint" />
          </mxGeometry>
        </mxCell>
        <mxCell id="Er9YEC_tbkNxV13FakHl-126" value="N" style="text;html=1;align=center;verticalAlign=middle;resizable=0;points=[];autosize=1;strokeColor=none;fillColor=none;" parent="1" vertex="1">
          <mxGeometry x="-435" y="-612" width="30" height="30" as="geometry" />
        </mxCell>
        <mxCell id="Er9YEC_tbkNxV13FakHl-127" value="1" style="text;html=1;align=center;verticalAlign=middle;resizable=0;points=[];autosize=1;strokeColor=none;fillColor=none;" parent="1" vertex="1">
          <mxGeometry x="-440" y="-842.75" width="30" height="30" as="geometry" />
        </mxCell>
        <mxCell id="Er9YEC_tbkNxV13FakHl-128" value="&lt;u&gt;id&lt;/u&gt;" style="ellipse;whiteSpace=wrap;html=1;fillColor=#fff2cc;strokeColor=#d6b656;" parent="1" vertex="1">
          <mxGeometry x="-415" y="-1044" width="80" height="40" as="geometry" />
        </mxCell>
        <mxCell id="Er9YEC_tbkNxV13FakHl-129" value="tipo" style="ellipse;whiteSpace=wrap;html=1;fillColor=#fff2cc;strokeColor=#d6b656;" parent="1" vertex="1">
          <mxGeometry x="-600" y="-1004" width="80" height="44" as="geometry" />
        </mxCell>
        <mxCell id="Er9YEC_tbkNxV13FakHl-130" value="" style="endArrow=none;html=1;rounded=0;" parent="1" source="Er9YEC_tbkNxV13FakHl-122" target="Er9YEC_tbkNxV13FakHl-129" edge="1">
          <mxGeometry width="50" height="50" relative="1" as="geometry">
            <mxPoint x="-560.62" y="-812.75" as="sourcePoint" />
            <mxPoint x="-560.62" y="-934.75" as="targetPoint" />
          </mxGeometry>
        </mxCell>
        <mxCell id="Er9YEC_tbkNxV13FakHl-131" value="" style="endArrow=none;html=1;rounded=0;" parent="1" source="Er9YEC_tbkNxV13FakHl-122" target="Er9YEC_tbkNxV13FakHl-128" edge="1">
          <mxGeometry width="50" height="50" relative="1" as="geometry">
            <mxPoint x="-420" y="-708" as="sourcePoint" />
            <mxPoint x="-420" y="-830" as="targetPoint" />
          </mxGeometry>
        </mxCell>
        <mxCell id="Er9YEC_tbkNxV13FakHl-132" value="&lt;u&gt;legajo&lt;/u&gt;" style="ellipse;whiteSpace=wrap;html=1;fillColor=#fff2cc;strokeColor=#d6b656;" parent="1" vertex="1">
          <mxGeometry x="-256.72" y="-340" width="80" height="40" as="geometry" />
        </mxCell>
        <mxCell id="Er9YEC_tbkNxV13FakHl-133" value="" style="endArrow=none;html=1;rounded=0;" parent="1" source="Er9YEC_tbkNxV13FakHl-132" target="prAd8TzG0-nLueriuJuA-3" edge="1">
          <mxGeometry width="50" height="50" relative="1" as="geometry">
            <mxPoint x="-300" y="-322" as="sourcePoint" />
            <mxPoint x="-382" y="-235" as="targetPoint" />
          </mxGeometry>
        </mxCell>
        <mxCell id="Er9YEC_tbkNxV13FakHl-134" value="Catalogo" style="rounded=0;whiteSpace=wrap;html=1;fillColor=#f8cecc;strokeColor=#b85450;" parent="1" vertex="1">
          <mxGeometry x="980" y="-431.5" width="120" height="60" as="geometry" />
        </mxCell>
        <mxCell id="Er9YEC_tbkNxV13FakHl-135" value="AccesorioElectronico" style="rounded=0;whiteSpace=wrap;html=1;fillColor=#f8cecc;strokeColor=#b85450;" parent="1" vertex="1">
          <mxGeometry x="490" y="-605" width="120" height="60" as="geometry" />
        </mxCell>
        <mxCell id="Er9YEC_tbkNxV13FakHl-136" value="ProductoImportado" style="rounded=0;whiteSpace=wrap;html=1;fillColor=#f8cecc;strokeColor=#b85450;" parent="1" vertex="1">
          <mxGeometry x="310" y="-840" width="120" height="60" as="geometry" />
        </mxCell>
        <mxCell id="Er9YEC_tbkNxV13FakHl-137" value="&lt;u&gt;id&lt;/u&gt;" style="ellipse;whiteSpace=wrap;html=1;fillColor=#fff2cc;strokeColor=#d6b656;" parent="1" vertex="1">
          <mxGeometry x="1206" y="-470" width="70" height="40" as="geometry" />
        </mxCell>
        <mxCell id="Er9YEC_tbkNxV13FakHl-138" value="categoria" style="ellipse;whiteSpace=wrap;html=1;fillColor=#fff2cc;strokeColor=#d6b656;" parent="1" vertex="1">
          <mxGeometry x="1206" y="-270" width="70" height="40" as="geometry" />
        </mxCell>
        <mxCell id="Er9YEC_tbkNxV13FakHl-139" value="nombre" style="ellipse;whiteSpace=wrap;html=1;fillColor=#fff2cc;strokeColor=#d6b656;" parent="1" vertex="1">
          <mxGeometry x="1206" y="-195" width="70" height="40" as="geometry" />
        </mxCell>
        <mxCell id="Er9YEC_tbkNxV13FakHl-140" value="" style="endArrow=none;html=1;rounded=0;" parent="1" source="Er9YEC_tbkNxV13FakHl-137" target="Er9YEC_tbkNxV13FakHl-134" edge="1">
          <mxGeometry width="50" height="50" relative="1" as="geometry">
            <mxPoint x="910" y="-305" as="sourcePoint" />
            <mxPoint x="960" y="-360" as="targetPoint" />
          </mxGeometry>
        </mxCell>
        <mxCell id="Er9YEC_tbkNxV13FakHl-141" value="precio_referencia" style="ellipse;whiteSpace=wrap;html=1;fillColor=#fff2cc;strokeColor=#d6b656;" parent="1" vertex="1">
          <mxGeometry x="745" y="-292" width="110" height="72" as="geometry" />
        </mxCell>
        <mxCell id="Er9YEC_tbkNxV13FakHl-142" value="precio" style="ellipse;whiteSpace=wrap;html=1;fillColor=#fff2cc;strokeColor=#d6b656;" parent="1" vertex="1">
          <mxGeometry x="760" y="-352.5" width="80" height="42.5" as="geometry" />
        </mxCell>
        <mxCell id="Er9YEC_tbkNxV13FakHl-143" value="uinidad_referencia" style="ellipse;whiteSpace=wrap;html=1;fillColor=#fff2cc;strokeColor=#d6b656;" parent="1" vertex="1">
          <mxGeometry x="1330" y="-426.5" width="120" height="70" as="geometry" />
        </mxCell>
        <mxCell id="Er9YEC_tbkNxV13FakHl-144" value="fecha" style="ellipse;whiteSpace=wrap;html=1;fillColor=#fff2cc;strokeColor=#d6b656;" parent="1" vertex="1">
          <mxGeometry x="1180" y="-347.5" width="70" height="40" as="geometry" />
        </mxCell>
        <mxCell id="Er9YEC_tbkNxV13FakHl-145" value="" style="endArrow=none;html=1;rounded=0;" parent="1" source="Er9YEC_tbkNxV13FakHl-138" target="Er9YEC_tbkNxV13FakHl-134" edge="1">
          <mxGeometry width="50" height="50" relative="1" as="geometry">
            <mxPoint x="1042" y="-292" as="sourcePoint" />
            <mxPoint x="1078" y="-353" as="targetPoint" />
          </mxGeometry>
        </mxCell>
        <mxCell id="Er9YEC_tbkNxV13FakHl-146" value="" style="endArrow=none;html=1;rounded=0;" parent="1" source="Er9YEC_tbkNxV13FakHl-134" target="Er9YEC_tbkNxV13FakHl-144" edge="1">
          <mxGeometry width="50" height="50" relative="1" as="geometry">
            <mxPoint x="1026" y="-284" as="sourcePoint" />
            <mxPoint x="1062" y="-345" as="targetPoint" />
          </mxGeometry>
        </mxCell>
        <mxCell id="Er9YEC_tbkNxV13FakHl-147" value="" style="endArrow=none;html=1;rounded=0;" parent="1" source="Er9YEC_tbkNxV13FakHl-139" target="Er9YEC_tbkNxV13FakHl-134" edge="1">
          <mxGeometry width="50" height="50" relative="1" as="geometry">
            <mxPoint x="1036" y="-274" as="sourcePoint" />
            <mxPoint x="1072" y="-335" as="targetPoint" />
          </mxGeometry>
        </mxCell>
        <mxCell id="Er9YEC_tbkNxV13FakHl-148" value="" style="endArrow=none;html=1;rounded=0;" parent="1" source="Er9YEC_tbkNxV13FakHl-134" target="Er9YEC_tbkNxV13FakHl-142" edge="1">
          <mxGeometry width="50" height="50" relative="1" as="geometry">
            <mxPoint x="1046" y="-264" as="sourcePoint" />
            <mxPoint x="1082" y="-325" as="targetPoint" />
          </mxGeometry>
        </mxCell>
        <mxCell id="Er9YEC_tbkNxV13FakHl-149" value="" style="endArrow=none;html=1;rounded=0;" parent="1" source="Er9YEC_tbkNxV13FakHl-141" target="Er9YEC_tbkNxV13FakHl-134" edge="1">
          <mxGeometry width="50" height="50" relative="1" as="geometry">
            <mxPoint x="1056" y="-254" as="sourcePoint" />
            <mxPoint x="1092" y="-315" as="targetPoint" />
          </mxGeometry>
        </mxCell>
        <mxCell id="Er9YEC_tbkNxV13FakHl-150" value="" style="endArrow=none;html=1;rounded=0;" parent="1" source="Er9YEC_tbkNxV13FakHl-134" target="Er9YEC_tbkNxV13FakHl-143" edge="1">
          <mxGeometry width="50" height="50" relative="1" as="geometry">
            <mxPoint x="1066" y="-244" as="sourcePoint" />
            <mxPoint x="1102" y="-305" as="targetPoint" />
          </mxGeometry>
        </mxCell>
        <mxCell id="Er9YEC_tbkNxV13FakHl-151" value="producto" style="ellipse;whiteSpace=wrap;html=1;fillColor=#fff2cc;strokeColor=#d6b656;" parent="1" vertex="1">
          <mxGeometry x="750" y="-728" width="120" height="70" as="geometry" />
        </mxCell>
        <mxCell id="Er9YEC_tbkNxV13FakHl-152" value="precio_unitario_pesos" style="ellipse;whiteSpace=wrap;html=1;fillColor=#fff2cc;strokeColor=#d6b656;" parent="1" vertex="1">
          <mxGeometry x="674" y="-520" width="120" height="70" as="geometry" />
        </mxCell>
        <mxCell id="Er9YEC_tbkNxV13FakHl-153" value="&lt;u&gt;id&lt;/u&gt;" style="ellipse;whiteSpace=wrap;html=1;fillColor=#fff2cc;strokeColor=#d6b656;" parent="1" vertex="1">
          <mxGeometry x="560" y="-710" width="120" height="70" as="geometry" />
        </mxCell>
        <mxCell id="Er9YEC_tbkNxV13FakHl-154" value="" style="endArrow=none;html=1;rounded=0;" parent="1" source="Er9YEC_tbkNxV13FakHl-135" target="Er9YEC_tbkNxV13FakHl-152" edge="1">
          <mxGeometry width="50" height="50" relative="1" as="geometry">
            <mxPoint x="870" y="-365" as="sourcePoint" />
            <mxPoint x="916" y="-392" as="targetPoint" />
          </mxGeometry>
        </mxCell>
        <mxCell id="Er9YEC_tbkNxV13FakHl-155" value="" style="endArrow=none;html=1;rounded=0;" parent="1" source="Er9YEC_tbkNxV13FakHl-135" target="Er9YEC_tbkNxV13FakHl-151" edge="1">
          <mxGeometry width="50" height="50" relative="1" as="geometry">
            <mxPoint x="860" y="-441" as="sourcePoint" />
            <mxPoint x="991" y="-454" as="targetPoint" />
          </mxGeometry>
        </mxCell>
        <mxCell id="Er9YEC_tbkNxV13FakHl-156" value="" style="endArrow=none;html=1;rounded=0;" parent="1" source="Er9YEC_tbkNxV13FakHl-153" target="Er9YEC_tbkNxV13FakHl-135" edge="1">
          <mxGeometry width="50" height="50" relative="1" as="geometry">
            <mxPoint x="870" y="-431" as="sourcePoint" />
            <mxPoint x="1001" y="-444" as="targetPoint" />
          </mxGeometry>
        </mxCell>
        <mxCell id="Er9YEC_tbkNxV13FakHl-157" value="id_producto" style="ellipse;whiteSpace=wrap;html=1;fillColor=#fff2cc;strokeColor=#d6b656;" parent="1" vertex="1">
          <mxGeometry x="230" y="-960" width="80" height="42.5" as="geometry" />
        </mxCell>
        <mxCell id="Er9YEC_tbkNxV13FakHl-158" value="nombre" style="ellipse;whiteSpace=wrap;html=1;fillColor=#fff2cc;strokeColor=#d6b656;" parent="1" vertex="1">
          <mxGeometry x="480" y="-970" width="80" height="42.5" as="geometry" />
        </mxCell>
        <mxCell id="Er9YEC_tbkNxV13FakHl-159" value="proveedor" style="ellipse;whiteSpace=wrap;html=1;fillColor=#fff2cc;strokeColor=#d6b656;" parent="1" vertex="1">
          <mxGeometry x="80" y="-870" width="80" height="42.5" as="geometry" />
        </mxCell>
        <mxCell id="Er9YEC_tbkNxV13FakHl-160" value="categoria" style="ellipse;whiteSpace=wrap;html=1;fillColor=#fff2cc;strokeColor=#d6b656;" parent="1" vertex="1">
          <mxGeometry x="170" y="-926.25" width="80" height="42.5" as="geometry" />
        </mxCell>
        <mxCell id="Er9YEC_tbkNxV13FakHl-161" value="cantidad_por_unidad" style="ellipse;whiteSpace=wrap;html=1;fillColor=#fff2cc;strokeColor=#d6b656;" parent="1" vertex="1">
          <mxGeometry x="317" y="-982.25" width="130" height="67" as="geometry" />
        </mxCell>
        <mxCell id="Er9YEC_tbkNxV13FakHl-163" value="" style="endArrow=none;html=1;rounded=0;" parent="1" source="Er9YEC_tbkNxV13FakHl-136" target="Er9YEC_tbkNxV13FakHl-161" edge="1">
          <mxGeometry width="50" height="50" relative="1" as="geometry">
            <mxPoint x="475" y="-605" as="sourcePoint" />
            <mxPoint x="562" y="-629" as="targetPoint" />
          </mxGeometry>
        </mxCell>
        <mxCell id="Er9YEC_tbkNxV13FakHl-164" value="" style="endArrow=none;html=1;rounded=0;" parent="1" source="Er9YEC_tbkNxV13FakHl-136" target="Er9YEC_tbkNxV13FakHl-162" edge="1">
          <mxGeometry width="50" height="50" relative="1" as="geometry">
            <mxPoint x="675" y="-729" as="sourcePoint" />
            <mxPoint x="762" y="-753" as="targetPoint" />
          </mxGeometry>
        </mxCell>
        <mxCell id="Er9YEC_tbkNxV13FakHl-165" value="" style="endArrow=none;html=1;rounded=0;" parent="1" source="Er9YEC_tbkNxV13FakHl-136" target="Er9YEC_tbkNxV13FakHl-160" edge="1">
          <mxGeometry width="50" height="50" relative="1" as="geometry">
            <mxPoint x="685" y="-719" as="sourcePoint" />
            <mxPoint x="772" y="-743" as="targetPoint" />
          </mxGeometry>
        </mxCell>
        <mxCell id="Er9YEC_tbkNxV13FakHl-166" value="" style="endArrow=none;html=1;rounded=0;" parent="1" source="Er9YEC_tbkNxV13FakHl-136" target="Er9YEC_tbkNxV13FakHl-158" edge="1">
          <mxGeometry width="50" height="50" relative="1" as="geometry">
            <mxPoint x="695" y="-709" as="sourcePoint" />
            <mxPoint x="782" y="-733" as="targetPoint" />
          </mxGeometry>
        </mxCell>
        <mxCell id="Er9YEC_tbkNxV13FakHl-167" value="" style="endArrow=none;html=1;rounded=0;" parent="1" source="Er9YEC_tbkNxV13FakHl-136" target="Er9YEC_tbkNxV13FakHl-157" edge="1">
          <mxGeometry width="50" height="50" relative="1" as="geometry">
            <mxPoint x="705" y="-699" as="sourcePoint" />
            <mxPoint x="792" y="-723" as="targetPoint" />
          </mxGeometry>
        </mxCell>
        <mxCell id="Er9YEC_tbkNxV13FakHl-168" value="" style="endArrow=none;html=1;rounded=0;" parent="1" source="Er9YEC_tbkNxV13FakHl-136" target="Er9YEC_tbkNxV13FakHl-159" edge="1">
          <mxGeometry width="50" height="50" relative="1" as="geometry">
            <mxPoint x="715" y="-689" as="sourcePoint" />
            <mxPoint x="802" y="-713" as="targetPoint" />
          </mxGeometry>
        </mxCell>
        <mxCell id="Er9YEC_tbkNxV13FakHl-170" value="" style="endArrow=none;html=1;rounded=0;" parent="1" source="prAd8TzG0-nLueriuJuA-21" target="Er9YEC_tbkNxV13FakHl-171" edge="1">
          <mxGeometry width="50" height="50" relative="1" as="geometry">
            <mxPoint x="130" y="-350" as="sourcePoint" />
            <mxPoint x="300" y="-490" as="targetPoint" />
          </mxGeometry>
        </mxCell>
        <mxCell id="Er9YEC_tbkNxV13FakHl-171" value="vende" style="rhombus;whiteSpace=wrap;html=1;fillColor=#dae8fc;strokeColor=#6c8ebf;" parent="1" vertex="1">
          <mxGeometry x="330" y="-460" width="60" height="50" as="geometry" />
        </mxCell>
        <mxCell id="Er9YEC_tbkNxV13FakHl-172" value="" style="endArrow=none;html=1;rounded=0;" parent="1" source="Er9YEC_tbkNxV13FakHl-135" target="Er9YEC_tbkNxV13FakHl-171" edge="1">
          <mxGeometry width="50" height="50" relative="1" as="geometry">
            <mxPoint x="114" y="-237" as="sourcePoint" />
            <mxPoint x="355" y="-452" as="targetPoint" />
          </mxGeometry>
        </mxCell>
        <mxCell id="Er9YEC_tbkNxV13FakHl-175" value="N" style="text;html=1;align=center;verticalAlign=middle;resizable=0;points=[];autosize=1;strokeColor=none;fillColor=none;" parent="1" vertex="1">
          <mxGeometry x="130" y="-272" width="30" height="30" as="geometry" />
        </mxCell>
        <mxCell id="Er9YEC_tbkNxV13FakHl-176" value="N" style="text;html=1;align=center;verticalAlign=middle;resizable=0;points=[];autosize=1;strokeColor=none;fillColor=none;" parent="1" vertex="1">
          <mxGeometry x="505" y="-545" width="30" height="30" as="geometry" />
        </mxCell>
        <mxCell id="Er9YEC_tbkNxV13FakHl-177" value="" style="endArrow=none;html=1;rounded=0;" parent="1" source="Er9YEC_tbkNxV13FakHl-136" target="Er9YEC_tbkNxV13FakHl-162" edge="1">
          <mxGeometry width="50" height="50" relative="1" as="geometry">
            <mxPoint x="381" y="-605" as="sourcePoint" />
            <mxPoint x="376" y="-763" as="targetPoint" />
          </mxGeometry>
        </mxCell>
        <mxCell id="Er9YEC_tbkNxV13FakHl-162" value="precio_por_unidad" style="ellipse;whiteSpace=wrap;html=1;fillColor=#fff2cc;strokeColor=#d6b656;" parent="1" vertex="1">
          <mxGeometry x="550" y="-926.25" width="120" height="76.25" as="geometry" />
        </mxCell>
        <mxCell id="Er9YEC_tbkNxV13FakHl-179" value="vende" style="rhombus;whiteSpace=wrap;html=1;fillColor=#dae8fc;strokeColor=#6c8ebf;" parent="1" vertex="1">
          <mxGeometry x="240" y="-634" width="60" height="50" as="geometry" />
        </mxCell>
        <mxCell id="Er9YEC_tbkNxV13FakHl-180" value="" style="endArrow=none;html=1;rounded=0;" parent="1" source="prAd8TzG0-nLueriuJuA-21" target="Er9YEC_tbkNxV13FakHl-179" edge="1">
          <mxGeometry width="50" height="50" relative="1" as="geometry">
            <mxPoint x="120" y="-237" as="sourcePoint" />
            <mxPoint x="354" y="-413" as="targetPoint" />
          </mxGeometry>
        </mxCell>
        <mxCell id="Er9YEC_tbkNxV13FakHl-181" value="" style="endArrow=none;html=1;rounded=0;" parent="1" source="Er9YEC_tbkNxV13FakHl-136" target="Er9YEC_tbkNxV13FakHl-179" edge="1">
          <mxGeometry width="50" height="50" relative="1" as="geometry">
            <mxPoint x="109" y="-237" as="sourcePoint" />
            <mxPoint x="287" y="-421" as="targetPoint" />
          </mxGeometry>
        </mxCell>
        <mxCell id="Er9YEC_tbkNxV13FakHl-183" value="N" style="text;html=1;align=center;verticalAlign=middle;resizable=0;points=[];autosize=1;strokeColor=none;fillColor=none;" parent="1" vertex="1">
          <mxGeometry x="55" y="-277" width="30" height="30" as="geometry" />
        </mxCell>
        <mxCell id="Er9YEC_tbkNxV13FakHl-184" value="N" style="text;html=1;align=center;verticalAlign=middle;resizable=0;points=[];autosize=1;strokeColor=none;fillColor=none;" parent="1" vertex="1">
          <mxGeometry x="300" y="-766.5" width="30" height="30" as="geometry" />
        </mxCell>
        <mxCell id="Er9YEC_tbkNxV13FakHl-185" value="vende" style="rhombus;whiteSpace=wrap;html=1;fillColor=#dae8fc;strokeColor=#6c8ebf;" parent="1" vertex="1">
          <mxGeometry x="475" y="-385" width="60" height="50" as="geometry" />
        </mxCell>
        <mxCell id="Er9YEC_tbkNxV13FakHl-186" value="" style="endArrow=none;html=1;rounded=0;" parent="1" source="prAd8TzG0-nLueriuJuA-21" target="Er9YEC_tbkNxV13FakHl-185" edge="1">
          <mxGeometry width="50" height="50" relative="1" as="geometry">
            <mxPoint x="160" y="-190" as="sourcePoint" />
            <mxPoint x="394" y="-366" as="targetPoint" />
          </mxGeometry>
        </mxCell>
        <mxCell id="Er9YEC_tbkNxV13FakHl-187" value="" style="endArrow=none;html=1;rounded=0;" parent="1" source="Er9YEC_tbkNxV13FakHl-134" target="Er9YEC_tbkNxV13FakHl-185" edge="1">
          <mxGeometry width="50" height="50" relative="1" as="geometry">
            <mxPoint x="580" y="-468" as="sourcePoint" />
            <mxPoint x="447" y="-370" as="targetPoint" />
          </mxGeometry>
        </mxCell>
        <mxCell id="Er9YEC_tbkNxV13FakHl-188" value="N" style="text;html=1;align=center;verticalAlign=middle;resizable=0;points=[];autosize=1;strokeColor=none;fillColor=none;" parent="1" vertex="1">
          <mxGeometry x="130" y="-247" width="30" height="30" as="geometry" />
        </mxCell>
        <mxCell id="Er9YEC_tbkNxV13FakHl-190" value="N" style="text;html=1;align=center;verticalAlign=middle;resizable=0;points=[];autosize=1;strokeColor=none;fillColor=none;" parent="1" vertex="1">
          <mxGeometry x="940" y="-431.5" width="30" height="30" as="geometry" />
        </mxCell>
        <mxCell id="Er9YEC_tbkNxV13FakHl-191" value="&lt;div&gt;tiene&lt;/div&gt;" style="rhombus;whiteSpace=wrap;html=1;fillColor=#dae8fc;strokeColor=#6c8ebf;" parent="1" vertex="1">
          <mxGeometry x="240" y="265" width="100" height="75" as="geometry" />
        </mxCell>
        <mxCell id="Er9YEC_tbkNxV13FakHl-192" value="" style="endArrow=none;html=1;rounded=0;" parent="1" source="Er9YEC_tbkNxV13FakHl-86" target="Er9YEC_tbkNxV13FakHl-191" edge="1">
          <mxGeometry width="50" height="50" relative="1" as="geometry">
            <mxPoint x="-25" y="397" as="sourcePoint" />
            <mxPoint x="204" y="230" as="targetPoint" />
          </mxGeometry>
        </mxCell>
        <mxCell id="Er9YEC_tbkNxV13FakHl-193" value="" style="endArrow=none;html=1;rounded=0;" parent="1" source="Er9YEC_tbkNxV13FakHl-191" target="Er9YEC_tbkNxV13FakHl-134" edge="1">
          <mxGeometry width="50" height="50" relative="1" as="geometry">
            <mxPoint x="350" y="437" as="sourcePoint" />
            <mxPoint x="960" as="targetPoint" />
            <Array as="points">
              <mxPoint x="960" y="280" />
              <mxPoint x="1040" y="280" />
              <mxPoint x="1040" y="120" />
              <mxPoint x="1040" y="-50" />
            </Array>
          </mxGeometry>
        </mxCell>
        <mxCell id="Er9YEC_tbkNxV13FakHl-196" value="1" style="text;html=1;align=center;verticalAlign=middle;resizable=0;points=[];autosize=1;strokeColor=none;fillColor=none;" parent="1" vertex="1">
          <mxGeometry x="-25" y="238" width="30" height="30" as="geometry" />
        </mxCell>
        <mxCell id="Er9YEC_tbkNxV13FakHl-199" value="N" style="text;html=1;align=center;verticalAlign=middle;resizable=0;points=[];autosize=1;strokeColor=none;fillColor=none;" parent="1" vertex="1">
          <mxGeometry x="1005" y="-362" width="30" height="30" as="geometry" />
        </mxCell>
        <mxCell id="Er9YEC_tbkNxV13FakHl-200" value="" style="endArrow=none;html=1;rounded=0;" parent="1" source="Er9YEC_tbkNxV13FakHl-86" target="Er9YEC_tbkNxV13FakHl-201" edge="1">
          <mxGeometry width="50" height="50" relative="1" as="geometry">
            <mxPoint x="-16" y="374" as="sourcePoint" />
            <mxPoint x="256" y="405" as="targetPoint" />
          </mxGeometry>
        </mxCell>
        <mxCell id="Er9YEC_tbkNxV13FakHl-201" value="&lt;div&gt;tiene&lt;/div&gt;" style="rhombus;whiteSpace=wrap;html=1;fillColor=#dae8fc;strokeColor=#6c8ebf;" parent="1" vertex="1">
          <mxGeometry x="240" y="370" width="90" height="75" as="geometry" />
        </mxCell>
        <mxCell id="Er9YEC_tbkNxV13FakHl-202" value="" style="endArrow=none;html=1;rounded=0;" parent="1" source="Er9YEC_tbkNxV13FakHl-201" target="Er9YEC_tbkNxV13FakHl-135" edge="1">
          <mxGeometry width="50" height="50" relative="1" as="geometry">
            <mxPoint x="340" y="400" as="sourcePoint" />
            <mxPoint x="1540" y="-300" as="targetPoint" />
            <Array as="points">
              <mxPoint x="980" y="400" />
              <mxPoint x="1270" y="400" />
              <mxPoint x="1410" y="400" />
              <mxPoint x="1550" y="400" />
              <mxPoint x="1540" y="140" />
              <mxPoint x="1540" y="-60" />
              <mxPoint x="1540" y="-580" />
            </Array>
          </mxGeometry>
        </mxCell>
        <mxCell id="Er9YEC_tbkNxV13FakHl-203" value="1" style="text;html=1;align=center;verticalAlign=middle;resizable=0;points=[];autosize=1;strokeColor=none;fillColor=none;" parent="1" vertex="1">
          <mxGeometry x="-25" y="288" width="30" height="30" as="geometry" />
        </mxCell>
        <mxCell id="Er9YEC_tbkNxV13FakHl-204" value="N" style="text;html=1;align=center;verticalAlign=middle;resizable=0;points=[];autosize=1;strokeColor=none;fillColor=none;" parent="1" vertex="1">
          <mxGeometry x="635" y="-602" width="30" height="30" as="geometry" />
        </mxCell>
        <mxCell id="Er9YEC_tbkNxV13FakHl-205" value="" style="endArrow=none;html=1;rounded=0;" parent="1" source="Er9YEC_tbkNxV13FakHl-86" target="Er9YEC_tbkNxV13FakHl-206" edge="1">
          <mxGeometry width="50" height="50" relative="1" as="geometry">
            <mxPoint x="-30" y="334" as="sourcePoint" />
            <mxPoint x="250" y="445" as="targetPoint" />
          </mxGeometry>
        </mxCell>
        <mxCell id="Er9YEC_tbkNxV13FakHl-206" value="&lt;div&gt;tiene&lt;/div&gt;" style="rhombus;whiteSpace=wrap;html=1;fillColor=#dae8fc;strokeColor=#6c8ebf;" parent="1" vertex="1">
          <mxGeometry y="470" width="90" height="75" as="geometry" />
        </mxCell>
        <mxCell id="Er9YEC_tbkNxV13FakHl-207" value="" style="endArrow=none;html=1;rounded=0;" parent="1" source="Er9YEC_tbkNxV13FakHl-206" target="Er9YEC_tbkNxV13FakHl-136" edge="1">
          <mxGeometry width="50" height="50" relative="1" as="geometry">
            <mxPoint x="240" y="530" as="sourcePoint" />
            <mxPoint x="571" y="-458.5" as="targetPoint" />
            <Array as="points">
              <mxPoint x="941" y="516.5" />
              <mxPoint x="1231" y="516.5" />
              <mxPoint x="1371" y="516.5" />
              <mxPoint x="1511" y="516.5" />
              <mxPoint x="1650" y="520" />
              <mxPoint x="1650" y="280" />
              <mxPoint x="1640" y="-140" />
              <mxPoint x="1630" y="-370" />
              <mxPoint x="1620" y="-810" />
              <mxPoint x="990" y="-810" />
            </Array>
          </mxGeometry>
        </mxCell>
        <mxCell id="Er9YEC_tbkNxV13FakHl-208" value="1" style="text;html=1;align=center;verticalAlign=middle;resizable=0;points=[];autosize=1;strokeColor=none;fillColor=none;" parent="1" vertex="1">
          <mxGeometry x="75" y="508" width="30" height="30" as="geometry" />
        </mxCell>
        <mxCell id="Er9YEC_tbkNxV13FakHl-209" value="N" style="text;html=1;align=center;verticalAlign=middle;resizable=0;points=[];autosize=1;strokeColor=none;fillColor=none;" parent="1" vertex="1">
          <mxGeometry x="435" y="-802" width="30" height="30" as="geometry" />
        </mxCell>
        <mxCell id="TUIGHSfXFbf-ZIaZobSF-1" value="eliminado" style="ellipse;whiteSpace=wrap;html=1;fillColor=#fff2cc;strokeColor=#d6b656;" vertex="1" parent="1">
          <mxGeometry x="-587.5" y="-726.5" width="80" height="40" as="geometry" />
        </mxCell>
        <mxCell id="TUIGHSfXFbf-ZIaZobSF-2" value="" style="endArrow=none;html=1;rounded=0;" edge="1" parent="1" source="prAd8TzG0-nLueriuJuA-2" target="TUIGHSfXFbf-ZIaZobSF-1">
          <mxGeometry width="50" height="50" relative="1" as="geometry">
            <mxPoint x="-434.5" y="-570" as="sourcePoint" />
            <mxPoint x="-575.5" y="-664" as="targetPoint" />
          </mxGeometry>
        </mxCell>
        <mxCell id="TUIGHSfXFbf-ZIaZobSF-3" value="direccion" style="ellipse;whiteSpace=wrap;html=1;fillColor=#fff2cc;strokeColor=#d6b656;" vertex="1" parent="1">
          <mxGeometry x="-110" y="-402" width="80" height="40" as="geometry" />
        </mxCell>
        <mxCell id="TUIGHSfXFbf-ZIaZobSF-4" value="horario" style="ellipse;whiteSpace=wrap;html=1;fillColor=#fff2cc;strokeColor=#d6b656;" vertex="1" parent="1">
          <mxGeometry x="-70" y="-455" width="80" height="40" as="geometry" />
        </mxCell>
        <mxCell id="TUIGHSfXFbf-ZIaZobSF-5" value="" style="endArrow=none;html=1;rounded=0;" edge="1" parent="1" source="prAd8TzG0-nLueriuJuA-21" target="TUIGHSfXFbf-ZIaZobSF-3">
          <mxGeometry width="50" height="50" relative="1" as="geometry">
            <mxPoint x="89.5" y="-257" as="sourcePoint" />
            <mxPoint x="0.5" y="-325" as="targetPoint" />
          </mxGeometry>
        </mxCell>
        <mxCell id="TUIGHSfXFbf-ZIaZobSF-6" value="" style="endArrow=none;html=1;rounded=0;" edge="1" parent="1" source="prAd8TzG0-nLueriuJuA-21" target="TUIGHSfXFbf-ZIaZobSF-4">
          <mxGeometry width="50" height="50" relative="1" as="geometry">
            <mxPoint x="96" y="-251" as="sourcePoint" />
            <mxPoint x="20" y="-362" as="targetPoint" />
          </mxGeometry>
        </mxCell>
        <mxCell id="TUIGHSfXFbf-ZIaZobSF-7" value="telefono" style="ellipse;whiteSpace=wrap;html=1;fillColor=#fff2cc;strokeColor=#d6b656;" vertex="1" parent="1">
          <mxGeometry x="80" y="-461.5" width="80" height="40" as="geometry" />
        </mxCell>
        <mxCell id="TUIGHSfXFbf-ZIaZobSF-8" value="" style="endArrow=none;html=1;rounded=0;" edge="1" parent="1" source="prAd8TzG0-nLueriuJuA-21" target="TUIGHSfXFbf-ZIaZobSF-7">
          <mxGeometry width="50" height="50" relative="1" as="geometry">
            <mxPoint x="120" y="-247" as="sourcePoint" />
            <mxPoint x="95" y="-382" as="targetPoint" />
          </mxGeometry>
        </mxCell>
        <mxCell id="TUIGHSfXFbf-ZIaZobSF-9" value="eliminado" style="ellipse;whiteSpace=wrap;html=1;fillColor=#fff2cc;strokeColor=#d6b656;" vertex="1" parent="1">
          <mxGeometry x="5" y="-415" width="80" height="40" as="geometry" />
        </mxCell>
        <mxCell id="TUIGHSfXFbf-ZIaZobSF-10" value="" style="endArrow=none;html=1;rounded=0;" edge="1" parent="1" source="prAd8TzG0-nLueriuJuA-21" target="TUIGHSfXFbf-ZIaZobSF-9">
          <mxGeometry width="50" height="50" relative="1" as="geometry">
            <mxPoint x="112" y="-212" as="sourcePoint" />
            <mxPoint x="35" y="-381" as="targetPoint" />
          </mxGeometry>
        </mxCell>
        <mxCell id="TUIGHSfXFbf-ZIaZobSF-11" value="email_personal" style="ellipse;whiteSpace=wrap;html=1;fillColor=#fff2cc;strokeColor=#d6b656;" vertex="1" parent="1">
          <mxGeometry x="-556" y="-436.5" width="80" height="40" as="geometry" />
        </mxCell>
        <mxCell id="TUIGHSfXFbf-ZIaZobSF-12" value="email_empresarial" style="ellipse;whiteSpace=wrap;html=1;fillColor=#fff2cc;strokeColor=#d6b656;" vertex="1" parent="1">
          <mxGeometry x="-467.42" y="-455" width="100" height="56.5" as="geometry" />
        </mxCell>
        <mxCell id="TUIGHSfXFbf-ZIaZobSF-13" value="cargo" style="ellipse;whiteSpace=wrap;html=1;fillColor=#fff2cc;strokeColor=#d6b656;" vertex="1" parent="1">
          <mxGeometry x="-360" y="-446.75" width="80" height="40" as="geometry" />
        </mxCell>
        <mxCell id="TUIGHSfXFbf-ZIaZobSF-14" value="turno" style="ellipse;whiteSpace=wrap;html=1;fillColor=#fff2cc;strokeColor=#d6b656;" vertex="1" parent="1">
          <mxGeometry x="-270" y="-426.5" width="80" height="40" as="geometry" />
        </mxCell>
        <mxCell id="TUIGHSfXFbf-ZIaZobSF-16" value="" style="endArrow=none;html=1;rounded=0;" edge="1" parent="1" source="prAd8TzG0-nLueriuJuA-3" target="TUIGHSfXFbf-ZIaZobSF-11">
          <mxGeometry width="50" height="50" relative="1" as="geometry">
            <mxPoint x="-406" y="-248" as="sourcePoint" />
            <mxPoint x="-530" y="-375" as="targetPoint" />
          </mxGeometry>
        </mxCell>
        <mxCell id="TUIGHSfXFbf-ZIaZobSF-17" value="" style="endArrow=none;html=1;rounded=0;" edge="1" parent="1" source="prAd8TzG0-nLueriuJuA-3" target="TUIGHSfXFbf-ZIaZobSF-12">
          <mxGeometry width="50" height="50" relative="1" as="geometry">
            <mxPoint x="-343" y="-246" as="sourcePoint" />
            <mxPoint x="-467" y="-373" as="targetPoint" />
          </mxGeometry>
        </mxCell>
        <mxCell id="TUIGHSfXFbf-ZIaZobSF-18" value="" style="endArrow=none;html=1;rounded=0;" edge="1" parent="1" source="prAd8TzG0-nLueriuJuA-3" target="TUIGHSfXFbf-ZIaZobSF-13">
          <mxGeometry width="50" height="50" relative="1" as="geometry">
            <mxPoint x="-273" y="-256.5" as="sourcePoint" />
            <mxPoint x="-397" y="-383.5" as="targetPoint" />
          </mxGeometry>
        </mxCell>
        <mxCell id="TUIGHSfXFbf-ZIaZobSF-19" value="" style="endArrow=none;html=1;rounded=0;" edge="1" parent="1" source="prAd8TzG0-nLueriuJuA-3" target="TUIGHSfXFbf-ZIaZobSF-14">
          <mxGeometry width="50" height="50" relative="1" as="geometry">
            <mxPoint x="-385" y="-234.5" as="sourcePoint" />
            <mxPoint x="-308" y="-396.5" as="targetPoint" />
          </mxGeometry>
        </mxCell>
        <mxCell id="TUIGHSfXFbf-ZIaZobSF-20" value="eliminado" style="ellipse;whiteSpace=wrap;html=1;fillColor=#fff2cc;strokeColor=#d6b656;" vertex="1" parent="1">
          <mxGeometry x="-587.5" y="-184" width="80" height="40" as="geometry" />
        </mxCell>
        <mxCell id="TUIGHSfXFbf-ZIaZobSF-21" value="" style="endArrow=none;html=1;rounded=0;" edge="1" parent="1" source="prAd8TzG0-nLueriuJuA-3" target="TUIGHSfXFbf-ZIaZobSF-20">
          <mxGeometry width="50" height="50" relative="1" as="geometry">
            <mxPoint x="-590" y="-219" as="sourcePoint" />
            <mxPoint x="-501" y="-182" as="targetPoint" />
          </mxGeometry>
        </mxCell>
        <mxCell id="TUIGHSfXFbf-ZIaZobSF-22" value="hora" style="ellipse;whiteSpace=wrap;html=1;fillColor=#fff2cc;strokeColor=#d6b656;" vertex="1" parent="1">
          <mxGeometry x="-690" y="-22.5" width="80" height="45" as="geometry" />
        </mxCell>
        <mxCell id="TUIGHSfXFbf-ZIaZobSF-23" value="" style="endArrow=none;html=1;rounded=0;" edge="1" parent="1" source="TUIGHSfXFbf-ZIaZobSF-22" target="prAd8TzG0-nLueriuJuA-36">
          <mxGeometry width="50" height="50" relative="1" as="geometry">
            <mxPoint x="-577.42" y="-15" as="sourcePoint" />
            <mxPoint x="-482.42" y="24" as="targetPoint" />
          </mxGeometry>
        </mxCell>
        <mxCell id="TUIGHSfXFbf-ZIaZobSF-24" value="IVA" style="ellipse;whiteSpace=wrap;html=1;fillColor=#fff2cc;strokeColor=#d6b656;" vertex="1" parent="1">
          <mxGeometry x="-680" y="52.5" width="80" height="45" as="geometry" />
        </mxCell>
        <mxCell id="TUIGHSfXFbf-ZIaZobSF-25" value="" style="endArrow=none;html=1;rounded=0;" edge="1" parent="1" source="TUIGHSfXFbf-ZIaZobSF-24" target="prAd8TzG0-nLueriuJuA-36">
          <mxGeometry width="50" height="50" relative="1" as="geometry">
            <mxPoint x="-624" y="60" as="sourcePoint" />
            <mxPoint x="-495" y="77" as="targetPoint" />
          </mxGeometry>
        </mxCell>
      </root>
    </mxGraphModel>
  </diagram>
</mxfile>
